<svg width="24" height="24" viewBox="0 0 24 24" fill="none" xmlns="http://www.w3.org/2000/svg">
<rect opacity="0.3" x="1.99951" y="2" width="20" height="20" rx="10" fill="#3B68FF"/>
<path fill-rule="evenodd" clip-rule="evenodd" d="M2.02721 11.25H7.21823C7.03162 9.02211 6.02082 7.02151 4.47986 5.5408L5.51916 4.4592C7.34008 6.20892 8.53259 8.59316 8.72276 11.25H11.2495V2.0277C11.4971 2.00934 11.7472 2 11.9995 2C12.2518 2 12.5019 2.00934 12.7495 2.0277V11.25H15.2753C15.4609 8.55748 16.6385 6.13691 18.4438 4.35305C18.6368 4.51592 18.8237 4.68598 19.0038 4.8628L19.2754 5.1398C19.3568 5.22617 19.4368 5.31398 19.5151 5.4032C17.9742 6.91811 16.9625 8.96675 16.7794 11.25H21.9718C21.9902 11.4976 21.9995 11.7477 21.9995 12C21.9995 12.2523 21.9902 12.5024 21.9718 12.75H16.7795C16.9626 15.0332 17.9743 17.0818 19.5153 18.5966C19.4395 18.6829 19.3623 18.7679 19.2836 18.8515L18.9953 19.1456C18.8178 19.3193 18.6339 19.4865 18.444 19.6468C16.6387 17.863 15.461 15.4425 15.2753 12.75H12.7495V21.9723C12.5019 21.9907 12.2518 22 11.9995 22C11.7472 22 11.4971 21.9907 11.2495 21.9723V12.75H8.72276C8.53259 15.4068 7.34008 17.7911 5.51916 19.5408L4.47986 18.4592C6.02082 16.9785 7.03162 14.9779 7.21823 12.75H2.02721C2.00885 12.5024 1.99951 12.2523 1.99951 12C1.99951 11.7477 2.00885 11.4976 2.02721 11.25Z" fill="#3B68FF"/>
</svg>
