<svg width="24" height="24" viewBox="0 0 24 24" fill="none" xmlns="http://www.w3.org/2000/svg">
<path opacity="0.3" fill-rule="evenodd" clip-rule="evenodd" d="M2.14723 2.26471C1.74106 2.18348 1.34594 2.44689 1.26471 2.85306C1.18348 3.25923 1.44689 3.65435 1.85306 3.73558L2.90242 3.94545C3.44117 4.0532 3.8464 4.50011 3.90107 5.0468L4.0546 6.58215L5.04408 14.8278C5.20994 16.2099 6.38244 17.2501 7.77449 17.2501H16.7674C18.7176 17.2501 20.4175 15.9229 20.8905 14.0309L22.0133 9.53988C22.4945 7.61488 21.0386 5.75014 19.0544 5.75014H5.47889L5.39362 4.89754C5.27335 3.69482 4.38184 2.71163 3.19659 2.47458L2.14723 2.26471Z" fill="#3B68FF"/>
<path d="M13 13.5H9" stroke="#3B68FF" stroke-width="1.5" stroke-linecap="round" stroke-linejoin="round"/>
<circle cx="8.5" cy="20" r="1.5" fill="#3B68FF"/>
<circle cx="17.5" cy="20" r="1.5" fill="#3B68FF"/>
</svg>
