<svg width="24" height="24" viewBox="0 0 24 24" fill="none" xmlns="http://www.w3.org/2000/svg">
<circle cx="2" cy="2" r="2" transform="matrix(-1 0 0 1 14 14)" stroke="#3B68FF" stroke-width="1.5"/>
<path d="M5 7.5C5 6.67157 5.67157 6 6.5 6H17.5C18.3284 6 19 6.67157 19 7.5C19 8.32843 18.3284 9 17.5 9H6.5C5.67157 9 5 8.32843 5 7.5Z" fill="#3B68FF"/>
<path opacity="0.3" fill-rule="evenodd" clip-rule="evenodd" d="M6.03857 10.4648L6.77061 19.2492C6.90018 20.8041 8.19998 22.0001 9.76024 22.0001H14.2394C15.7997 22.0001 17.0995 20.8041 17.2291 19.2492L17.9611 10.4648C17.8108 10.488 17.6567 10.5001 17.4998 10.5001H6.49984C6.34298 10.5001 6.18894 10.488 6.03857 10.4648Z" fill="#3B68FF"/>
<path fill-rule="evenodd" clip-rule="evenodd" d="M9 2C7.89543 2 7 2.89543 7 4V4.5H17V4C17 2.89543 16.1046 2 15 2H9Z" fill="#3B68FF"/>
</svg>
