<svg width="24" height="24" viewBox="0 0 24 24" fill="none" xmlns="http://www.w3.org/2000/svg">
<path opacity="0.3" fill-rule="evenodd" clip-rule="evenodd" d="M6 3.25C3.37665 3.25 1.25 5.37665 1.25 8V9.22305C1.25 9.78862 1.64428 10.1979 2.07079 10.345C2.75802 10.5819 3.25 11.2345 3.25 12C3.25 12.7655 2.75802 13.4181 2.07079 13.655C1.64428 13.8021 1.25 14.2114 1.25 14.777V16C1.25 18.6234 3.37665 20.75 6 20.75H18C20.6234 20.75 22.75 18.6234 22.75 16V14.777C22.75 14.2114 22.3557 13.8021 21.9292 13.655C21.242 13.4181 20.75 12.7655 20.75 12C20.75 11.2345 21.242 10.5819 21.9292 10.345C22.3557 10.1979 22.75 9.78862 22.75 9.22305V8C22.75 5.37665 20.6234 3.25 18 3.25H6Z" fill="#3B68FF"/>
<path d="M11.601 8.52831C11.8011 8.26342 12.1989 8.26342 12.399 8.52831L13.3894 9.83976C13.4493 9.91897 13.5313 9.97859 13.6252 10.011L15.1785 10.5477C15.4922 10.6561 15.6152 11.0345 15.4251 11.3067L14.4839 12.6539C14.427 12.7353 14.3957 12.8317 14.3938 12.931L14.3634 14.5741C14.3573 14.906 14.0354 15.1399 13.7178 15.0432L12.1457 14.5644C12.0507 14.5354 11.9493 14.5354 11.8543 14.5644L10.2822 15.0432C9.96464 15.1399 9.64274 14.906 9.6366 14.5741L9.60616 12.931C9.60432 12.8317 9.57298 12.7353 9.51613 12.6539L8.57493 11.3067C8.38483 11.0345 8.50778 10.6561 8.82152 10.5477L10.3748 10.011C10.4687 9.97859 10.5507 9.91897 10.6106 9.83976L11.601 8.52831Z" fill="#3B68FF"/>
</svg>
