<svg width="24" height="24" viewBox="0 0 24 24" fill="none" xmlns="http://www.w3.org/2000/svg">
<path opacity="0.3" d="M1.24951 7.99974C1.24951 5.37639 3.37616 3.24974 5.99951 3.24974H17.9995C20.6229 3.24974 22.7495 5.37639 22.7495 7.99974V9.22279C22.7495 9.78836 22.3552 10.1977 21.9287 10.3447C21.2415 10.5817 20.7495 11.2342 20.7495 11.9997C20.7495 12.7653 21.2415 13.4178 21.9287 13.6548C22.3552 13.8018 22.7495 14.2111 22.7495 14.7767L22.7495 15.9997C22.7495 18.6231 20.6229 20.7497 17.9995 20.7497H5.99951C3.37616 20.7497 1.24951 18.6231 1.24951 15.9997L1.24951 14.7767C1.24951 14.2111 1.64379 13.8018 2.0703 13.6548C2.75754 13.4178 3.24951 12.7653 3.24951 11.9997C3.24951 11.2342 2.75754 10.5817 2.0703 10.3447C1.64379 10.1977 1.24951 9.78836 1.24951 9.22279L1.24951 7.99974Z" fill="#3B68FF"/>
<path d="M10.3576 10.3578C10.0484 10.6669 9.54726 10.6669 9.23815 10.3578C8.92904 10.0487 8.92904 9.54753 9.23815 9.23841C9.54726 8.9293 10.0484 8.9293 10.3576 9.23841C10.6667 9.54753 10.6667 10.0487 10.3576 10.3578Z" fill="#3B68FF"/>
<path d="M14.7604 14.7611C14.4513 15.0703 13.9501 15.0703 13.641 14.7611C13.3319 14.452 13.3319 13.9508 13.641 13.6417C13.9501 13.3326 14.4513 13.3326 14.7604 13.6417C15.0695 13.9508 15.0695 14.452 14.7604 14.7611Z" fill="#3B68FF"/>
<path fill-rule="evenodd" clip-rule="evenodd" d="M14.7685 9.23041C15.0614 9.52331 15.0614 9.99818 14.7685 10.2911L10.2909 14.7687C9.99799 15.0616 9.52312 15.0616 9.23022 14.7687C8.93733 14.4758 8.93733 14.0009 9.23022 13.708L13.7078 9.23041C14.0007 8.93752 14.4756 8.93752 14.7685 9.23041Z" fill="#3B68FF"/>
</svg>
