<svg width="24" height="24" viewBox="0 0 24 24" fill="none" xmlns="http://www.w3.org/2000/svg">
<path opacity="0.3" fill-rule="evenodd" clip-rule="evenodd" d="M21.2647 19.9446C21.2647 20.359 20.929 20.6949 20.515 20.6949H14.3933C13.9792 20.6949 13.6436 20.359 13.6436 19.9446C13.6436 19.5302 13.9792 19.1943 14.3933 19.1943H20.515C20.929 19.1943 21.2647 19.5302 21.2647 19.9446Z" fill="#3B68FF"/>
<path d="M16.8714 4.33547C16.0903 3.55442 14.8245 3.5549 14.044 4.33654L12.3809 6.00223L17.7213 11.3427L19.3813 9.63963C20.1457 8.85536 20.1376 7.60171 19.3632 6.82733L16.8714 4.33547Z" fill="#3B68FF"/>
<path opacity="0.3" d="M16.6741 12.4168L11.3208 7.06348L4.74391 13.6503C4.21284 14.1822 3.90062 14.8942 3.86902 15.6455L3.75087 18.4545C3.715 19.3072 4.39607 20.0181 5.24891 20.0182L8.00105 20.0183C8.8094 20.0183 9.58353 19.6918 10.1479 19.1127L16.6741 12.4168Z" fill="#3B68FF"/>
</svg>
