<svg width="24" height="24" viewBox="0 0 24 24" fill="none" xmlns="http://www.w3.org/2000/svg">
<path opacity="0.3" d="M15.75 18.3821V14.1943L8.25 18.5693V20.3821C8.25 21.683 9.61905 22.5291 10.7826 21.9473L14.7826 19.9473C15.3755 19.6509 15.75 19.0449 15.75 18.3821Z" fill="#3B68FF"/>
<path fill-rule="evenodd" clip-rule="evenodd" d="M1.25 4C1.25 2.48122 2.48122 1.25 4 1.25H20C21.5188 1.25 22.75 2.48122 22.75 4V4.81751C22.75 5.76736 22.3896 6.68181 21.7415 7.3762L16.0862 13.4354C15.8701 13.6669 15.75 13.9717 15.75 14.2883V14.1943L8.25 18.5693V14.2883C8.25 13.9717 8.12985 13.6669 7.91382 13.4354L2.25854 7.3762C1.61044 6.68181 1.25 5.76736 1.25 4.81751V4Z" fill="#3B68FF"/>
</svg>
