<svg width="24" height="24" viewBox="0 0 24 24" fill="none" xmlns="http://www.w3.org/2000/svg">
<path opacity="0.3" fill-rule="evenodd" clip-rule="evenodd" d="M7 3.75C4.65279 3.75 2.75 5.65279 2.75 8V16C2.75 18.3472 4.65279 20.25 7 20.25H17C19.3472 20.25 21.25 18.3472 21.25 16V11.5C21.25 9.15279 19.3472 7.25 17 7.25H14.5439C13.3328 7.25 12.1963 6.66513 11.4924 5.67964C10.6447 4.4929 10.0646 3.75 8.95615 3.75H7ZM12 15.75C11.5858 15.75 11.25 16.0858 11.25 16.5C11.25 16.9142 11.5858 17.25 12 17.25H18C18.4142 17.25 18.75 16.9142 18.75 16.5C18.75 16.0858 18.4142 15.75 18 15.75H12Z" fill="#3B68FF"/>
<path d="M12.1182 4C12.3101 4.24233 12.4838 4.48605 12.646 4.7137L12.7131 4.80779C13.1355 5.39908 13.8174 5.75 14.544 5.75H17.0002C18.4599 5.75 19.7925 6.29393 20.8065 7.19017C20.2457 5.34376 18.5298 4 16.5002 4H12.1182Z" fill="#3B68FF"/>
<path d="M12 15.75C11.5858 15.75 11.25 16.0858 11.25 16.5C11.25 16.9142 11.5858 17.25 12 17.25H18C18.4142 17.25 18.75 16.9142 18.75 16.5C18.75 16.0858 18.4142 15.75 18 15.75H12Z" fill="#3B68FF"/>
</svg>
