<svg width="24" height="24" viewBox="0 0 24 24" fill="none" xmlns="http://www.w3.org/2000/svg">
<path fill-rule="evenodd" clip-rule="evenodd" d="M12 2.59668C11.124 2.59668 10.248 2.8835 9.52142 3.45715L4.02142 7.79925C3.06058 8.55782 2.5 9.7146 2.5 10.9388V17.5004C2.5 19.7095 4.29086 21.5004 6.5 21.5004H8C8.55228 21.5004 9 21.0527 9 20.5004V17.5004C9 16.3958 9.89543 15.5004 11 15.5004H12V2.59668Z" fill="#3B68FF"/>
<path d="M9.52142 3.45715L9.05669 2.86849L9.05669 2.86849L9.52142 3.45715ZM12 2.59668H12.75V1.84668L12 1.84668L12 2.59668ZM4.02142 7.79925L4.48616 8.38792L4.48616 8.38792L4.02142 7.79925ZM12 15.5004V16.2504H12.75V15.5004H12ZM9.98616 4.04581C10.5766 3.57966 11.2878 3.34668 12 3.34668L12 1.84668C10.9603 1.84668 9.91948 2.18734 9.05669 2.86849L9.98616 4.04581ZM4.48616 8.38792L9.98616 4.04581L9.05669 2.86849L3.55669 7.21059L4.48616 8.38792ZM3.25 10.9388C3.25 9.94413 3.70547 9.00425 4.48616 8.38792L3.55669 7.21059C2.41569 8.11138 1.75 9.48506 1.75 10.9388H3.25ZM3.25 17.5004V10.9388H1.75V17.5004H3.25ZM6.5 20.7504C4.70507 20.7504 3.25 19.2953 3.25 17.5004H1.75C1.75 20.1237 3.87665 22.2504 6.5 22.2504V20.7504ZM8 20.7504H6.5V22.2504H8V20.7504ZM8.25 20.5004C8.25 20.6384 8.13807 20.7504 8 20.7504V22.2504C8.9665 22.2504 9.75 21.4669 9.75 20.5004H8.25ZM8.25 17.5004V20.5004H9.75V17.5004H8.25ZM11 14.7504C9.48122 14.7504 8.25 15.9816 8.25 17.5004H9.75C9.75 16.81 10.3096 16.2504 11 16.2504V14.7504ZM12 14.7504H11V16.2504H12V14.7504ZM12.75 15.5004V2.59668H11.25V15.5004H12.75Z" fill="#3B68FF"/>
<g opacity="0.3">
<path fill-rule="evenodd" clip-rule="evenodd" d="M12 2.59668C12.876 2.59668 13.752 2.8835 14.4786 3.45715L19.9786 7.79925C20.9394 8.55782 21.5 9.7146 21.5 10.9388V17.5004C21.5 19.7095 19.7091 21.5004 17.5 21.5004H16C15.4477 21.5004 15 21.0527 15 20.5004V17.5004C15 16.3958 14.1046 15.5004 13 15.5004H12V2.59668Z" fill="#3B68FF"/>
<path d="M14.4786 3.45715L14.9433 2.86849L14.9433 2.86849L14.4786 3.45715ZM12 2.59668H11.25V1.84668L12 1.84668L12 2.59668ZM19.9786 7.79925L19.5138 8.38792L19.5138 8.38792L19.9786 7.79925ZM12 15.5004V16.2504H11.25V15.5004H12ZM14.0138 4.04581C13.4234 3.57966 12.7122 3.34668 12 3.34668L12 1.84668C13.0397 1.84668 14.0805 2.18734 14.9433 2.86849L14.0138 4.04581ZM19.5138 8.38792L14.0138 4.04581L14.9433 2.86849L20.4433 7.21059L19.5138 8.38792ZM20.75 10.9388C20.75 9.94413 20.2945 9.00425 19.5138 8.38792L20.4433 7.21059C21.5843 8.11138 22.25 9.48506 22.25 10.9388H20.75ZM20.75 17.5004V10.9388H22.25V17.5004H20.75ZM17.5 20.7504C19.2949 20.7504 20.75 19.2953 20.75 17.5004H22.25C22.25 20.1237 20.1234 22.2504 17.5 22.2504V20.7504ZM16 20.7504H17.5V22.2504H16V20.7504ZM15.75 20.5004C15.75 20.6384 15.8619 20.7504 16 20.7504V22.2504C15.0335 22.2504 14.25 21.4669 14.25 20.5004H15.75ZM15.75 17.5004V20.5004H14.25V17.5004H15.75ZM13 14.7504C14.5188 14.7504 15.75 15.9816 15.75 17.5004H14.25C14.25 16.81 13.6904 16.2504 13 16.2504V14.7504ZM12 14.7504H13V16.2504H12V14.7504ZM11.25 15.5004V2.59668H12.75V15.5004H11.25Z" fill="#3B68FF"/>
</g>
</svg>
