<svg width="24" height="24" viewBox="0 0 24 24" fill="none" xmlns="http://www.w3.org/2000/svg">
<path opacity="0.3" d="M2 7C2 4.23858 4.23858 2 7 2H17C19.7614 2 22 4.23858 22 7V17C22 19.7614 19.7614 22 17 22H7C4.23858 22 2 19.7614 2 17V7Z" fill="#3B68FF"/>
<path fill-rule="evenodd" clip-rule="evenodd" d="M22.0002 16.0096V16.9997C22.0002 19.7611 19.7616 21.9997 17.0002 21.9997H7.00022C4.55176 21.9997 2.51435 20.2397 2.08398 17.9159L2.4417 17.5582C2.48065 17.5192 2.52275 17.4836 2.56757 17.4515L4.75942 15.8859C5.47543 15.3745 6.45625 15.4557 7.07844 16.0779L8.15169 17.1511C8.62032 17.6198 9.38012 17.6198 9.84875 17.1511L14.8379 12.162C15.4962 11.5037 16.5478 11.456 17.263 12.052L21.9105 15.9249C21.9421 15.9513 21.9721 15.9795 22.0002 16.0096Z" fill="#3B68FF"/>
<circle cx="2" cy="2" r="2" transform="matrix(-1 0 0 1 10 6)" fill="#3B68FF"/>
</svg>
