<svg width="24" height="24" viewBox="0 0 24 24" fill="none" xmlns="http://www.w3.org/2000/svg">
<g opacity="0.3">
<path fill-rule="evenodd" clip-rule="evenodd" d="M7 3C4.23858 3 2 5.23858 2 8V20.9194C2 21.7579 2.96993 22.2241 3.6247 21.7002L6.45217 19.4383C6.8068 19.1546 7.24742 19 7.70156 19H17C19.7614 19 22 16.7614 22 14V8C22 5.23858 19.7614 3 17 3H7Z" fill="#3B68FF"/>
<path fill-rule="evenodd" clip-rule="evenodd" d="M7 3.75C4.65279 3.75 2.75 5.65279 2.75 8V20.9194C2.75 21.129 2.99248 21.2455 3.15617 21.1146L5.98365 18.8526C6.47126 18.4625 7.07712 18.25 7.70156 18.25H17C19.3472 18.25 21.25 16.3472 21.25 14V8C21.25 5.65279 19.3472 3.75 17 3.75H7ZM1.25 8C1.25 4.82436 3.82436 2.25 7 2.25H17C20.1756 2.25 22.75 4.82436 22.75 8V14C22.75 17.1756 20.1756 19.75 17 19.75H7.70156C7.41772 19.75 7.14233 19.8466 6.92069 20.0239L4.09322 22.2859C2.94738 23.2026 1.25 22.3868 1.25 20.9194V8Z" fill="#3B68FF"/>
</g>
<circle cx="7.0498" cy="11.0498" r="1.25" fill="#3B68FF"/>
<circle cx="12.0498" cy="11.0498" r="1.25" fill="#3B68FF"/>
<circle cx="17.0498" cy="11.0498" r="1.25" fill="#3B68FF"/>
</svg>
