<svg width="24" height="24" viewBox="0 0 24 24" fill="none" xmlns="http://www.w3.org/2000/svg">
<path d="M12 7.5V7C12 6.17157 11.3284 5.5 10.5 5.5V5.5C9.67157 5.5 9 4.82843 9 4V3" stroke="#3B68FF" stroke-width="1.5" stroke-linecap="round"/>
<path opacity="0.3" fill-rule="evenodd" clip-rule="evenodd" d="M7 7.25C3.82436 7.25 1.25 9.82436 1.25 13V17C1.25 20.1756 3.82436 22.75 7 22.75H17C20.1756 22.75 22.75 20.1756 22.75 17V13C22.75 9.82436 20.1756 7.25 17 7.25H7Z" fill="#3B68FF"/>
<circle cx="18" cy="13.5" r="1" fill="#3B68FF"/>
<circle cx="16" cy="16.5" r="1" fill="#3B68FF"/>
<path d="M8 17L8 13" stroke="#3B68FF" stroke-width="1.5" stroke-linecap="round" stroke-linejoin="round"/>
<path d="M6 15H10" stroke="#3B68FF" stroke-width="1.5" stroke-linecap="round" stroke-linejoin="round"/>
</svg>
