<svg width="24" height="24" viewBox="0 0 24 24" fill="none" xmlns="http://www.w3.org/2000/svg">
<path opacity="0.3" fill-rule="evenodd" clip-rule="evenodd" d="M22.4049 4.36915C22.616 2.75528 21.286 1.42529 19.6721 1.63636C17.3131 1.94489 13.3056 2.792 10.7228 5.1875C9.90096 5.9497 9.14164 6.87036 8.467 7.81714L6.53053 7.5405C5.98524 7.4626 5.4351 7.64598 5.04561 8.03548L1.86363 11.2175C0.843924 12.2372 1.42599 13.9834 2.85358 14.1873L5.82343 14.6116L5.82361 14.6102C5.95476 14.8812 6.13215 15.1325 6.35104 15.3513L8.6899 17.6902C8.90878 17.9091 9.16001 18.0865 9.43096 18.2176L9.42969 18.2178L9.85396 21.1876C10.0579 22.6152 11.8041 23.1973 12.8238 22.1776L16.0058 18.9956C16.3953 18.6061 16.5787 18.056 16.5008 17.5107L16.2241 15.5742C17.1709 14.8996 18.0915 14.1403 18.8537 13.3185C21.2492 10.7356 22.0964 6.72815 22.4049 4.36915Z" fill="#3B68FF"/>
<path d="M5.92943 18.1116L3.101 20.94M3.80811 15.9902L2.39389 17.4044M8.05074 20.2329L6.63653 21.6471" stroke="#3B68FF" stroke-width="1.5" stroke-linecap="round"/>
<path d="M13.7074 7.50503C12.9263 8.28608 12.9263 9.55241 13.7074 10.3335C14.4884 11.1145 15.7547 11.1145 16.5358 10.3335C17.3168 9.55241 17.3168 8.28608 16.5358 7.50503C15.7547 6.72399 14.4884 6.72399 13.7074 7.50503Z" fill="#3B68FF"/>
</svg>
