<svg width="24" height="24" viewBox="0 0 24 24" fill="none" xmlns="http://www.w3.org/2000/svg">
<path opacity="0.3" fill-rule="evenodd" clip-rule="evenodd" d="M6 1.25C3.37665 1.25 1.25 3.37665 1.25 6V18C1.25 20.6234 3.37665 22.75 6 22.75H18C20.6234 22.75 22.75 20.6234 22.75 18V9.24264C22.75 8.24808 22.3549 7.29425 21.6516 6.59099L17.409 2.34835C16.7057 1.64509 15.7519 1.25 14.7574 1.25H6Z" fill="#3B68FF"/>
<path fill-rule="evenodd" clip-rule="evenodd" d="M7.25 1.25V6C7.25 6.9665 8.0335 7.75 9 7.75H15C15.9665 7.75 16.75 6.9665 16.75 6V1.82321C16.2957 1.53827 15.7842 1.35327 15.25 1.28249V6C15.25 6.13807 15.1381 6.25 15 6.25H9C8.86193 6.25 8.75 6.13807 8.75 6V1.25H7.25ZM18.75 22.6911V15C18.75 13.4812 17.5188 12.25 16 12.25H8C6.48122 12.25 5.25 13.4812 5.25 15V22.6911C5.4943 22.7299 5.7448 22.75 6 22.75H6.75V15C6.75 14.3096 7.30964 13.75 8 13.75H16C16.6904 13.75 17.25 14.3096 17.25 15V22.75H18C18.2552 22.75 18.5057 22.7299 18.75 22.6911Z" fill="#3B68FF"/>
</svg>
