<svg width="24" height="24" viewBox="0 0 24 24" fill="none" xmlns="http://www.w3.org/2000/svg">
<path opacity="0.3" fill-rule="evenodd" clip-rule="evenodd" d="M8 1.25C5.37665 1.25 3.25 3.37665 3.25 6V18C3.25 20.6234 5.37665 22.75 8 22.75H16C18.6234 22.75 20.75 20.6234 20.75 18V6C20.75 3.37665 18.6234 1.25 16 1.25H8Z" fill="#3B68FF"/>
<path fill-rule="evenodd" clip-rule="evenodd" d="M9 5.25C8.0335 5.25 7.25 6.0335 7.25 7V8C7.25 8.9665 8.0335 9.75 9 9.75H15C15.9665 9.75 16.75 8.9665 16.75 8V7C16.75 6.0335 15.9665 5.25 15 5.25H9Z" fill="#3B68FF"/>
<path d="M9 18H8" stroke="#3B68FF" stroke-width="1.5" stroke-linecap="round"/>
<path d="M9 14H8" stroke="#3B68FF" stroke-width="1.5" stroke-linecap="round"/>
<path d="M15 18H16" stroke="#3B68FF" stroke-width="1.5" stroke-linecap="round"/>
<path d="M15 14L16 14" stroke="#3B68FF" stroke-width="1.5" stroke-linecap="round"/>
</svg>
