<svg width="492" height="384" viewBox="0 0 492 384" fill="none" xmlns="http://www.w3.org/2000/svg">
<path d="M312.31 374.24L134.6 382.44C120.39 382.99 110.54 371.51 112.19 356.74L141.71 61.47C143.35 46.16 155.93 32.47 170.15 30.85L351.15 7.33996C367 5.14996 377.94 16.63 376.3 32.49L342.94 344.71C341.84 360 327.62 373.15 312.31 374.24Z" fill="#22272E"/>
<path d="M299.19 368.23L121.48 376.43C107.26 376.98 97.42 365.49 99.06 350.73L128.59 55.46C130.23 40.15 142.81 26.46 157.02 24.84L338 1.31999C353.86 -0.860014 364.8 10.62 363.16 26.48L329.81 338.7C328.17 354.56 314.5 367.68 299.19 368.23Z" fill="#22272E"/>
<path d="M307.39 100.84L169.05 115.61C168.021 115.725 166.979 115.608 166.001 115.267C165.024 114.925 164.135 114.369 163.401 113.639C162.667 112.909 162.106 112.023 161.759 111.047C161.413 110.071 161.29 109.03 161.4 108L164.68 74.1C165.22 70.82 167.41 68.1 170.68 68.1L309.57 51.7C310.604 51.5839 311.651 51.7022 312.633 52.0461C313.616 52.39 314.508 52.9506 315.244 53.6865C315.979 54.4223 316.54 55.3145 316.884 56.2967C317.228 57.2788 317.346 58.3259 317.23 59.36L313.4 94.9C313.366 96.4769 312.72 97.9788 311.598 99.0875C310.476 100.196 308.967 100.825 307.39 100.84Z" fill="#F4C2C9"/>
<path d="M178.89 194.89L160.89 196.53C159.857 196.648 158.81 196.531 157.828 196.189C156.846 195.846 155.955 195.286 155.219 194.551C154.484 193.815 153.924 192.924 153.581 191.942C153.239 190.96 153.122 189.913 153.24 188.88L155.42 169.19C155.97 165.91 158.16 163.19 161.42 163.19L179.42 161.55C180.454 161.432 181.501 161.549 182.483 161.892C183.465 162.234 184.357 162.794 185.093 163.529C185.83 164.264 186.39 165.156 186.734 166.138C187.078 167.119 187.196 168.166 187.08 169.2L184.89 188.89C184.91 192.16 182.18 194.34 178.89 194.89Z" fill="#6171FF"/>
<path d="M298.64 184.5L279 186.14C277.966 186.258 276.92 186.141 275.937 185.798C274.955 185.456 274.063 184.896 273.327 184.161C272.59 183.426 272.03 182.534 271.686 181.552C271.342 180.57 271.224 179.524 271.34 178.49L273.53 157.71C274.08 154.43 276.27 151.71 279.53 151.71L299.21 149.53C300.244 149.412 301.29 149.529 302.273 149.872C303.255 150.214 304.147 150.774 304.883 151.509C305.62 152.244 306.18 153.136 306.524 154.118C306.868 155.099 306.986 156.146 306.87 157.18L304.68 177.96C304.588 179.582 303.936 181.121 302.834 182.314C301.732 183.507 300.249 184.28 298.64 184.5Z" fill="#6171FF"/>
<path d="M238 189.42L219.41 191.06C218.376 191.178 217.33 191.061 216.347 190.718C215.365 190.376 214.473 189.816 213.737 189.081C213 188.346 212.44 187.454 212.096 186.472C211.752 185.49 211.634 184.444 211.75 183.41L213.94 163.18C214.49 159.9 216.67 157.18 219.94 157.18L238.53 155.54C239.564 155.424 240.611 155.542 241.592 155.886C242.574 156.23 243.466 156.79 244.201 157.526C244.936 158.263 245.496 159.155 245.838 160.137C246.181 161.119 246.298 162.166 246.18 163.2L244 183.41C243.987 184.998 243.351 186.518 242.229 187.642C241.107 188.766 239.588 189.404 238 189.42Z" fill="#6171FF"/>
<path d="M171.79 262.15L153.79 263.24C149.42 263.79 146.14 259.96 146.14 255.59L148.32 235.9C148.55 234.293 149.331 232.816 150.529 231.722C151.728 230.627 153.269 229.983 154.89 229.9L172.89 228.26C173.924 228.142 174.971 228.259 175.953 228.602C176.935 228.944 177.827 229.504 178.563 230.239C179.3 230.974 179.86 231.866 180.204 232.848C180.548 233.829 180.666 234.876 180.55 235.91L178.36 255.6C177.8 259.41 175.07 262.15 171.79 262.15Z" fill="#6171FF"/>
<path d="M291.54 254L271.85 255.64C267.48 256.18 264.2 252.36 264.2 247.98L266.38 227.75C266.93 224.47 269.66 221.75 272.94 221.75L292.63 220C293.664 219.884 294.71 220.002 295.692 220.346C296.674 220.69 297.566 221.25 298.301 221.987C299.036 222.723 299.596 223.615 299.938 224.597C300.281 225.58 300.398 226.626 300.28 227.66L298.1 248.44C297.55 250.67 294.82 253.4 291.54 254Z" fill="#6171FF"/>
<path d="M230.84 258.32L212.25 259.41C207.88 259.96 204.59 256.13 204.59 251.76L206.78 231.53C207.33 228.25 210.06 225.53 213.34 225.53L231.93 223.89C232.965 223.772 234.012 223.889 234.995 224.232C235.979 224.575 236.871 225.136 237.608 225.872C238.344 226.608 238.905 227.501 239.248 228.484C239.591 229.468 239.708 230.515 239.59 231.55L237.4 251.78C237.101 253.408 236.313 254.906 235.141 256.074C233.969 257.243 232.469 258.026 230.84 258.32Z" fill="#6171FF"/>
<path d="M164.68 329.4L147.18 330.5C142.81 330.5 139.53 327.22 140.07 322.84L142.26 303.16C142.81 299.88 145.54 297.16 148.82 297.16L166.32 296.07C170.69 295.52 173.97 299.35 173.43 303.72L171.24 323.41C171.24 326.67 168 329.4 164.68 329.4Z" fill="#6171FF"/>
<path d="M283.88 322.84L264.2 323.94C259.82 323.94 256.54 320.66 257.09 316.28L259.27 296.05C259.82 292.77 262.56 290.05 265.84 290.05L285.52 288.96C289.9 288.41 293.18 292.24 292.63 296.62L290.44 317.39C290.1 318.894 289.272 320.244 288.086 321.229C286.9 322.215 285.421 322.781 283.88 322.84Z" fill="#79B7FF"/>
<path d="M223.73 326.12L205.14 327.22C200.77 327.22 197.49 323.94 198.03 319.56L200.22 299.88C200.77 296.6 203.5 293.88 206.78 293.88L225.37 292.79C229.75 292.24 233.03 296.07 232.48 300.44L230.29 320.68C229.948 322.182 229.119 323.53 227.933 324.513C226.747 325.497 225.27 326.062 223.73 326.12Z" fill="#79B7FF"/>
</svg>
