<svg width="492" height="384" viewBox="0 0 492 384" fill="none" xmlns="http://www.w3.org/2000/svg">
<path d="M107.21 355.24L36.4299 20.67C36.0629 18.918 36.0955 17.1057 36.5254 15.368C36.9552 13.6303 37.7712 12.0118 38.9128 10.6329C40.0543 9.25405 41.492 8.15023 43.1189 7.40354C44.7458 6.65685 46.5202 6.2865 48.3099 6.32002H381.4C386.024 6.33591 390.495 7.98214 394.025 10.9691C397.555 13.956 399.919 18.0922 400.7 22.65L456.13 360.65C456.397 362.364 456.29 364.115 455.816 365.783C455.341 367.451 454.511 368.996 453.382 370.313C452.253 371.629 450.852 372.685 449.275 373.408C447.699 374.131 445.984 374.503 444.25 374.5L126.51 370.5C122.018 370.609 117.629 369.143 114.104 366.356C110.579 363.569 108.14 359.636 107.21 355.24Z" fill="#6171FF"/>
<path d="M99.78 363.16L29 28.59C28.6307 26.8369 28.6621 25.0231 29.0917 23.2838C29.5214 21.5445 30.3382 19.9246 31.4813 18.5451C32.6243 17.1655 34.0641 16.0619 35.6932 15.3164C37.3224 14.571 39.0988 14.2031 40.89 14.24H374C378.625 14.252 383.098 15.8968 386.629 18.8844C390.16 21.872 392.522 26.0105 393.3 30.57L448.74 368.57C449.009 370.284 448.903 372.037 448.429 373.706C447.955 375.375 447.125 376.922 445.996 378.24C444.867 379.557 443.465 380.614 441.888 381.337C440.311 382.061 438.595 382.434 436.86 382.43L119.12 378.43C114.638 378.472 110.277 376.981 106.759 374.203C103.241 371.426 100.779 367.529 99.78 363.16Z" fill="#4151DF"/>
<path d="M137.89 336.44L79 57.3H354.18L400.2 339.4L137.89 336.44Z" stroke="#22272E" stroke-width="8.91" stroke-linecap="round" stroke-linejoin="round"/>
<path d="M160.16 57.3L219.56 337.42" stroke="#22272E" stroke-width="8.91" stroke-linecap="round" stroke-linejoin="round"/>
<path d="M93.84 128.07H364.07" stroke="#22272E" stroke-width="8.91" stroke-linecap="round" stroke-linejoin="round"/>
<path d="M108.2 196.37H375.95" stroke="#22272E" stroke-width="8.91" stroke-linecap="round" stroke-linejoin="round"/>
<path d="M124.53 265.66L388.82 269.12" stroke="#22272E" stroke-width="8.91" stroke-linecap="round" stroke-linejoin="round"/>
<path d="M207.68 91.94H313.1" stroke="#22272E" stroke-width="8.91" stroke-linecap="round" stroke-linejoin="round"/>
<path d="M221.54 162.22H326.95" stroke="#22272E" stroke-width="8.91" stroke-linecap="round" stroke-linejoin="round"/>
<path d="M237.37 231.02L342.79 232.5" stroke="#22272E" stroke-width="8.91" stroke-linecap="round" stroke-linejoin="round"/>
<path d="M252.22 298.82L353.68 301.3" stroke="#22272E" stroke-width="8.91" stroke-linecap="round" stroke-linejoin="round"/>
<path d="M107.7 75.11L151.26 108.27" stroke="#F4C2C9" stroke-width="8.91" stroke-linecap="round" stroke-linejoin="round"/>
<path d="M139.38 75.11L117.11 108.27" stroke="#F4C2C9" stroke-width="8.91" stroke-linecap="round" stroke-linejoin="round"/>
<path d="M135.42 214.68L178.97 247.35" stroke="#F4C2C9" stroke-width="8.91" stroke-linecap="round" stroke-linejoin="round"/>
<path d="M167.09 214.68L144.33 247.35" stroke="#F4C2C9" stroke-width="8.91" stroke-linecap="round" stroke-linejoin="round"/>
<path d="M151.26 283.48L194.81 316.64" stroke="#F4C2C9" stroke-width="8.91" stroke-linecap="round" stroke-linejoin="round"/>
<path d="M182.93 283.48L160.66 316.64" stroke="#F4C2C9" stroke-width="8.91" stroke-linecap="round" stroke-linejoin="round"/>
<path d="M124.53 158.26L139.38 173.6L160.66 145.89" stroke="#79B7FF" stroke-width="8.91" stroke-linecap="round" stroke-linejoin="round"/>
</svg>
