<svg width="492" height="384" viewBox="0 0 492 384" fill="none" xmlns="http://www.w3.org/2000/svg">
<path d="M267.38 361.35C267.382 356.955 266.08 352.658 263.64 349.002C261.2 345.347 257.73 342.498 253.67 340.814C249.61 339.131 245.142 338.69 240.831 339.546C236.52 340.402 232.56 342.517 229.452 345.625C226.343 348.732 224.226 352.691 223.368 357.001C222.51 361.312 222.949 365.78 224.63 369.841C226.312 373.902 229.16 377.373 232.814 379.815C236.468 382.257 240.765 383.56 245.16 383.56C248.085 383.589 250.987 383.035 253.696 381.929C256.404 380.824 258.865 379.189 260.934 377.121C263.003 375.053 264.639 372.593 265.746 369.885C266.852 367.177 267.408 364.275 267.38 361.35Z" fill="#4151DF"/>
<path d="M374.51 120.3C375.77 137.985 373.403 155.741 367.557 172.479C361.71 189.218 352.507 204.585 340.51 217.64C315.704 244.494 301.95 279.722 302 316.28V339.14C301.927 345.182 299.494 350.956 295.221 355.228C290.947 359.499 285.172 361.93 279.13 362H212.5C206.46 361.927 200.687 359.496 196.416 355.224C192.144 350.953 189.713 345.18 189.64 339.14V316.28C189.64 279.69 175.92 244.42 151.1 218.28C128.746 194.367 116.36 162.824 116.47 130.09C116.47 55.63 179.84 -4.47001 255 0.759991C318.33 4.67999 369.94 56.28 374.51 120.3Z" fill="#79B7FF"/>
<path d="M188.99 316.28H301.34" stroke="#22272E" stroke-width="11.76" stroke-linecap="round" stroke-linejoin="round"/>
<path d="M188.99 338.49H301.34" stroke="#22272E" stroke-width="11.76" stroke-linecap="round" stroke-linejoin="round"/>
<path d="M233.41 316.28V137.28C233.41 120.94 215.12 111.15 201.41 120.28C190.95 127.47 189.65 143.14 199.41 152.28L207.25 159.47" stroke="#22272E" stroke-width="11.76" stroke-linecap="round" stroke-linejoin="round"/>
<path d="M256.92 316.28V137.28C256.92 120.94 275.21 111.15 288.92 120.28C299.37 127.47 300.68 143.14 290.92 152.28L283.08 159.47" stroke="#22272E" stroke-width="11.76" stroke-linecap="round" stroke-linejoin="round"/>
</svg>
