<svg width="492" height="384" viewBox="0 0 492 384" fill="none" xmlns="http://www.w3.org/2000/svg">
<g clip-path="url(#clip0_1_2394)">
<path d="M160.51 323.16L6.99996 264.73C4.89928 263.9 3.10275 262.447 1.8515 260.567C0.600248 258.686 -0.0458375 256.468 -4.28741e-05 254.21L246.22 218.36C246.22 218.36 276.61 269.36 273.49 270.57C270.37 271.78 160.51 323.16 160.51 323.16Z" fill="#22272E"/>
<path d="M0 254.6L164.4 312.25L258.68 266.67C258.68 266.67 238.04 220.31 235.68 220.67C233.32 221.03 0 254.6 0 254.6Z" fill="#63737A"/>
<path d="M157.39 313.42L211.15 85.13C212.492 79.7593 215.529 74.964 219.81 71.4551C224.092 67.9462 229.39 65.9106 234.92 65.65L481.53 59C487.76 59 492.82 64.85 490.88 71.08L440.62 246.41C439.39 250.696 437.048 254.58 433.832 257.669C430.617 260.758 426.642 262.942 422.31 264L169.08 324.72C161.68 326.28 155.44 320.44 157.39 313.42Z" fill="#22272E"/>
<path d="M366.862 181.562C370.502 169.179 367.095 157.272 359.253 154.967C351.411 152.662 342.103 160.832 338.463 173.215C334.823 185.598 338.23 197.505 346.072 199.81C353.914 202.115 363.222 193.945 366.862 181.562Z" fill="#63737A"/>
</g>
<defs>
<clipPath id="clip0_1_2394">
<rect width="491.3" height="384" fill="white"/>
</clipPath>
</defs>
</svg>
