<svg width="492" height="384" viewBox="0 0 492 384" fill="none" xmlns="http://www.w3.org/2000/svg">
<path d="M402.88 328L51.6699 381.2C49.8151 381.487 47.9209 381.385 46.1074 380.902C44.2938 380.418 42.6005 379.563 41.1348 378.391C39.6691 377.218 38.463 375.754 37.5928 374.091C36.7227 372.428 36.2075 370.603 36.0799 368.73L15.0799 52.43C14.936 50.3723 15.2354 48.3077 15.9581 46.3758C16.6807 44.4438 17.8097 42.6895 19.2687 41.2314C20.7277 39.7734 22.4828 38.6455 24.4152 37.9242C26.3476 37.2028 28.4124 36.9047 30.4699 37.05L382.3 59.5C385.53 59.6949 388.585 61.0372 390.914 63.285C393.242 65.5328 394.691 68.5383 395 71.76L415.16 312.62C415.383 316.25 414.251 319.833 411.982 322.675C409.713 325.517 406.469 327.414 402.88 328Z" fill="#63737A"/>
<path d="M412.44 327.58L59.5599 381C57.7065 381.282 55.8147 381.177 54.0041 380.691C52.1935 380.204 50.5036 379.348 49.0411 378.175C47.5786 377.002 46.3755 375.538 45.5077 373.876C44.64 372.214 44.1266 370.39 43.9999 368.52L22.7799 50.7699C22.6364 48.6856 22.9412 46.5947 23.6739 44.6382C24.4066 42.6816 25.5501 40.9048 27.0275 39.4275C28.5048 37.9502 30.2816 36.8066 32.2382 36.0739C34.1947 35.3412 36.2856 35.0364 38.3699 35.1799L391.65 57.6299C394.908 57.8401 397.983 59.2156 400.311 61.5051C402.639 63.7947 404.065 66.8454 404.33 70.0999L424.7 312C425.102 315.685 424.044 319.38 421.751 322.293C419.459 325.206 416.116 327.104 412.44 327.58Z" fill="#22272E"/>
<path d="M182.38 218.69L83.05 224.09C81.5431 224.151 80.0721 223.62 78.9512 222.611C77.8302 221.602 77.1479 220.195 77.05 218.69L71.23 134.69C71.191 133.901 71.3105 133.113 71.5812 132.372C71.852 131.63 72.2686 130.95 72.8064 130.372C73.3443 129.794 73.9925 129.33 74.7127 129.007C75.433 128.683 76.2107 128.508 77 128.49L176.34 129.12C177.82 129.094 179.252 129.642 180.337 130.649C181.422 131.655 182.075 133.043 182.16 134.52L188 212.45C188.051 213.231 187.946 214.015 187.689 214.754C187.433 215.494 187.031 216.174 186.507 216.756C185.983 217.338 185.348 217.809 184.639 218.141C183.93 218.473 183.162 218.66 182.38 218.69Z" fill="#4151DF"/>
<path d="M289.2 186.27L206.07 189.18C204.561 189.24 203.089 188.708 201.968 187.697C200.847 186.686 200.165 185.277 200.07 183.77L196.53 135.35C196.487 134.555 196.605 133.759 196.877 133.011C197.149 132.263 197.569 131.577 198.113 130.995C198.656 130.413 199.312 129.947 200.04 129.625C200.768 129.303 201.554 129.131 202.35 129.12L285.48 129.74C286.941 129.777 288.339 130.345 289.411 131.34C290.482 132.334 291.154 133.685 291.3 135.14L294.81 180C294.883 180.786 294.793 181.579 294.546 182.329C294.298 183.079 293.899 183.77 293.372 184.358C292.846 184.947 292.203 185.42 291.485 185.749C290.768 186.078 289.989 186.256 289.2 186.27Z" fill="#79B7FF"/>
<path d="M383.34 183.15L313.34 185.64C311.832 185.703 310.36 185.173 309.238 184.164C308.117 183.154 307.435 181.746 307.34 180.24L303.81 136.39C303.765 135.594 303.882 134.798 304.154 134.049C304.425 133.3 304.845 132.614 305.389 132.032C305.933 131.45 306.589 130.984 307.318 130.662C308.047 130.34 308.833 130.169 309.63 130.16L379.63 130.57C381.093 130.607 382.492 131.177 383.564 132.173C384.636 133.17 385.306 134.524 385.45 135.98L388.77 176.91C388.847 177.681 388.765 178.459 388.53 179.198C388.295 179.936 387.911 180.618 387.403 181.203C386.894 181.787 386.271 182.262 385.573 182.596C384.874 182.931 384.114 183.12 383.34 183.15Z" fill="#F4C2C9"/>
<path d="M188.62 300.15L89.28 311C88.4971 311.094 87.7033 311.027 86.9476 310.802C86.1919 310.577 85.4905 310.199 84.8868 309.692C84.283 309.184 83.7898 308.559 83.4378 307.853C83.0857 307.148 82.8822 306.377 82.84 305.59L79.1 251.31C79.0337 249.778 79.5563 248.279 80.5605 247.121C81.5647 245.962 82.9743 245.232 84.5 245.08L184.05 238.43C184.814 238.374 185.581 238.47 186.308 238.711C187.035 238.953 187.707 239.335 188.286 239.837C188.865 240.338 189.339 240.949 189.681 241.635C190.023 242.32 190.227 243.066 190.28 243.83L194 293.92C194.004 295.432 193.461 296.895 192.473 298.039C191.485 299.184 190.117 299.933 188.62 300.15Z" stroke="#63737A" stroke-width="3.74" stroke-linecap="round" stroke-linejoin="round"/>
<path d="M298.55 298.07L215.63 307.84C214.848 307.934 214.055 307.867 213.3 307.642C212.545 307.418 211.844 307.041 211.24 306.535C210.637 306.029 210.143 305.404 209.791 304.7C209.438 303.996 209.234 303.226 209.19 302.44L202.54 212.87C202.43 211.327 202.937 209.803 203.949 208.633C204.962 207.463 206.397 206.743 207.94 206.63L291.07 202.68C292.579 202.619 294.051 203.152 295.172 204.163C296.293 205.174 296.975 206.583 297.07 208.09L303.72 291.84C303.81 293.341 303.327 294.82 302.366 295.977C301.406 297.134 300.042 297.882 298.55 298.07Z" fill="#F4C2C9"/>
<path d="M281.3 218.27L221.66 221.8C221.322 221.798 220.989 221.87 220.682 222.011C220.375 222.152 220.103 222.358 219.885 222.616C219.667 222.873 219.508 223.175 219.419 223.501C219.33 223.826 219.313 224.167 219.37 224.5L222.08 261.5C222.092 261.832 222.174 262.159 222.32 262.458C222.466 262.757 222.672 263.022 222.926 263.236C223.18 263.451 223.477 263.61 223.796 263.704C224.115 263.797 224.45 263.823 224.78 263.78L284.42 258.59C284.752 258.576 285.078 258.493 285.377 258.347C285.675 258.201 285.941 257.995 286.156 257.741C286.371 257.487 286.531 257.192 286.626 256.874C286.722 256.555 286.75 256.22 286.71 255.89L284 220.56C283.868 219.933 283.53 219.368 283.042 218.953C282.553 218.539 281.94 218.298 281.3 218.27Z" fill="#4151DF"/>
<path d="M391.65 277.5L321.65 285.19C320.867 285.286 320.072 285.219 319.316 284.995C318.56 284.77 317.858 284.393 317.254 283.885C316.65 283.378 316.156 282.751 315.805 282.045C315.453 281.339 315.251 280.568 315.21 279.78L309.6 207.67C309.49 206.128 309.997 204.605 311.01 203.437C312.022 202.268 313.458 201.55 315 201.44L385 198.11C386.508 198.05 387.981 198.582 389.102 199.593C390.223 200.604 390.904 202.013 391 203.52L396.61 271.26C396.696 271.996 396.636 272.741 396.433 273.454C396.23 274.166 395.889 274.832 395.428 275.411C394.967 275.991 394.396 276.474 393.747 276.833C393.099 277.191 392.386 277.418 391.65 277.5Z" fill="#79B7FF"/>
<path d="M137.91 265.86L139.16 281.24" stroke="#63737A" stroke-width="3.74" stroke-linecap="round" stroke-linejoin="round"/>
<path d="M131.26 274.17L145.81 272.93" stroke="#63737A" stroke-width="3.74" stroke-linecap="round" stroke-linejoin="round"/>
<path d="M237.45 282.9C237.04 278.74 233.92 275.42 230.18 275.84C226.44 276.26 223.53 279.99 223.95 284.36C224.37 288.73 227.69 291.84 231.43 291.42C235 290.8 237.66 287.06 237.45 282.9Z" fill="#282828"/>
<path d="M249.51 281.65L288.37 277.71" stroke="#282828" stroke-width="3.74" stroke-linecap="round" stroke-linejoin="round"/>
<path d="M336 221C335.58 217.05 332.88 214.14 329.56 214.14C326.23 214.35 323.95 217.68 324.15 221.63C324.57 225.57 327.27 228.69 330.6 228.48C334.09 228.25 336.37 224.92 336 221Z" fill="#4151DF"/>
<path d="M346.56 220.35L380.02 218.27" stroke="#282828" stroke-width="3.74" stroke-linecap="round" stroke-linejoin="round"/>
<path d="M337.83 243.21C337.41 239.21 334.71 236.35 331.39 236.56C328.07 236.77 325.78 240.3 325.98 244.25C326.4 248.2 329.31 251.31 332.43 250.9C335.75 250.48 338.25 247.16 337.83 243.21Z" fill="#4151DF"/>
<path d="M348.22 242.38L381.89 239.68" stroke="#282828" stroke-width="3.74" stroke-linecap="round" stroke-linejoin="round"/>
<path d="M339.7 265.44C339.28 261.5 336.58 258.59 333.26 258.79C329.94 258.99 327.65 262.54 327.85 266.48C328.27 270.43 331.18 273.34 334.3 273.13C337.62 272.72 339.91 269.39 339.7 265.44Z" fill="#4151DF"/>
<path d="M350.09 264.41L383.55 261.08" stroke="#282828" stroke-width="3.74" stroke-linecap="round" stroke-linejoin="round"/>
<path d="M105.91 162.16L92.4 162.37C91.7819 162.339 91.1942 162.093 90.7378 161.675C90.2815 161.257 89.9852 160.693 89.9 160.08L88.9 145.95C88.8858 145.619 88.9405 145.289 89.0606 144.981C89.1808 144.672 89.3637 144.392 89.5978 144.158C89.8319 143.924 90.1121 143.741 90.4206 143.621C90.7291 143.501 91.0592 143.446 91.3899 143.46H104.9C105.515 143.493 106.099 143.738 106.553 144.154C107.007 144.57 107.303 145.13 107.39 145.74L108.39 159.67C108.311 160.301 108.025 160.888 107.576 161.339C107.127 161.79 106.541 162.078 105.91 162.16Z" fill="#79B7FF"/>
<path d="M120.45 143.46L167.21 143.25" stroke="#282828" stroke-width="3.74" stroke-linecap="round" stroke-linejoin="round"/>
<path d="M121.29 155.51L168.04 155.09" stroke="#282828" stroke-width="3.74" stroke-linecap="round" stroke-linejoin="round"/>
<path d="M330.14 158.83L319.54 159.04C319.205 158.993 318.891 158.852 318.634 158.632C318.377 158.412 318.188 158.124 318.09 157.8L317.09 144.29C317.084 144.098 317.118 143.906 317.189 143.727C317.26 143.548 317.366 143.386 317.502 143.249C317.637 143.112 317.799 143.005 317.978 142.933C318.156 142.861 318.348 142.826 318.54 142.83H329.14C329.476 142.88 329.791 143.024 330.05 143.245C330.308 143.466 330.499 143.755 330.6 144.08L331.6 157.38C331.574 157.758 331.412 158.113 331.143 158.38C330.874 158.647 330.518 158.807 330.14 158.83Z" fill="#282828"/>
<path d="M340.12 142.63H374.82" stroke="#282828" stroke-width="3.74" stroke-linecap="round" stroke-linejoin="round"/>
<path d="M341.15 153.22L375.65 152.81" stroke="#282828" stroke-width="3.74" stroke-linecap="round" stroke-linejoin="round"/>
<path d="M319.13 170.47L376.9 169.02" stroke="#282828" stroke-width="3.74" stroke-linecap="round" stroke-linejoin="round"/>
<path d="M108.19 194.37L94.6799 194.79C94.0535 194.79 93.4499 194.554 92.9888 194.13C92.5277 193.706 92.2426 193.124 92.1899 192.5L91.1899 178.37C91.171 178.055 91.2159 177.739 91.3217 177.442C91.4276 177.144 91.5923 176.871 91.806 176.639C92.0198 176.406 92.2781 176.219 92.5658 176.089C92.8534 175.958 93.1643 175.887 93.4799 175.88L106.99 175.46C107.606 175.494 108.192 175.74 108.646 176.158C109.1 176.576 109.395 177.139 109.48 177.75L110.48 191.67C110.52 192.328 110.304 192.977 109.877 193.48C109.45 193.983 108.846 194.302 108.19 194.37Z" fill="#79B7FF"/>
<path d="M122.74 175.25L169.5 174.01" stroke="#282828" stroke-width="3.74" stroke-linecap="round" stroke-linejoin="round"/>
<path d="M123.57 187.51L170.33 186.06" stroke="#282828" stroke-width="3.74" stroke-linecap="round" stroke-linejoin="round"/>
<path d="M142.27 93.79L72.2699 91.71C71.1567 91.6807 70.0941 91.2388 69.2884 90.4701C68.4827 89.7013 67.9914 88.6606 67.9099 87.55L67.0799 76.55C67.027 75.9268 67.1072 75.2995 67.3152 74.7097C67.5232 74.1198 67.8543 73.581 68.2865 73.1289C68.7187 72.6769 69.2421 72.3219 69.822 72.0876C70.4019 71.8533 71.025 71.745 71.6499 71.77L141.65 74.68C142.759 74.7137 143.817 75.156 144.62 75.922C145.423 76.688 145.914 77.7236 146 78.83L146.85 89C146.884 89.6203 146.791 90.241 146.575 90.8237C146.36 91.4064 146.028 91.9388 145.598 92.3878C145.169 92.8368 144.652 93.1929 144.08 93.4341C143.507 93.6753 142.891 93.7964 142.27 93.79Z" fill="#4151DF"/>
<path d="M213.14 143.04L279.23 142.83" stroke="#282828" stroke-width="3.74" stroke-linecap="round" stroke-linejoin="round"/>
<path d="M213.97 154.68L280.06 153.85" stroke="#282828" stroke-width="3.74" stroke-linecap="round" stroke-linejoin="round"/>
<path d="M215.22 172.97L250.75 172.14" stroke="#282828" stroke-width="3.74" stroke-linecap="round" stroke-linejoin="round"/>
<path d="M381.26 92.75C381.06 89.63 378.77 86.93 376.07 86.75C373.57 86.55 371.5 89.25 371.91 92.36C372.12 95.69 374.41 98.36 377.11 98.36C379.6 98.57 381.47 95.87 381.26 92.75Z" fill="#63737A"/>
<path d="M362.77 92.13C362.56 88.8 360.07 86.13 357.57 86.13C354.87 85.92 353 88.62 353.21 91.95C353.42 95.28 355.91 97.95 358.61 97.95C361.1 97.94 363 95.24 362.77 92.13Z" fill="#63737A"/>
<path d="M343.65 91.29C343.44 87.97 340.95 85.29 338.25 85.06C335.55 84.83 333.47 87.55 333.67 90.88C333.87 94.21 336.37 96.88 339.08 97.11C342 97.32 343.86 94.62 343.65 91.29Z" fill="#63737A"/>
<path d="M465.64 120L373.37 118.34C371.565 118.343 369.828 117.656 368.514 116.42C367.199 115.183 366.407 113.491 366.3 111.69L358 9.99996C357.952 9.19948 358.074 8.3979 358.359 7.64814C358.643 6.89838 359.083 6.2175 359.65 5.65045C360.217 5.0834 360.898 4.64309 361.648 4.35858C362.398 4.07408 363.199 3.95184 364 3.99996L456.69 13.77C458.379 13.9308 459.956 14.6888 461.136 15.9077C462.316 17.1266 463.023 18.7265 463.13 20.42L471.24 113.73C471.33 114.519 471.253 115.318 471.012 116.074C470.772 116.831 470.374 117.528 469.845 118.12C469.317 118.712 468.669 119.186 467.944 119.51C467.219 119.834 466.434 120.001 465.64 120Z" fill="#F8AB5D"/>
<path d="M470.62 118.31L378.35 116.65C376.546 116.653 374.81 115.966 373.497 114.729C372.185 113.493 371.395 111.8 371.29 110L363 8.37997C362.952 7.57949 363.074 6.7779 363.359 6.02814C363.643 5.27838 364.083 4.5975 364.65 4.03046C365.217 3.46341 365.898 3.0231 366.648 2.73859C367.398 2.45408 368.199 2.33185 369 2.37997L461.69 12.15C463.38 12.3088 464.957 13.0662 466.138 14.2855C467.319 15.5048 468.025 17.1058 468.13 18.8L476.23 112.11C476.291 112.89 476.193 113.675 475.94 114.416C475.688 115.157 475.287 115.839 474.761 116.419C474.236 117 473.598 117.467 472.886 117.792C472.174 118.117 471.403 118.293 470.62 118.31Z" fill="#79B7FF"/>
<path d="M403.29 21.26L452.13 25.83" stroke="#63737A" stroke-width="3.74" stroke-linecap="round" stroke-linejoin="round"/>
<path d="M404.12 31.24L452.96 35.39" stroke="#63737A" stroke-width="3.74" stroke-linecap="round" stroke-linejoin="round"/>
<path d="M405.99 54.1L455.04 57.42" stroke="#63737A" stroke-width="3.74" stroke-linecap="round" stroke-linejoin="round"/>
<path d="M406.82 63.86L455.66 66.77" stroke="#63737A" stroke-width="3.74" stroke-linecap="round" stroke-linejoin="round"/>
<path d="M408.9 86.9299L457.74 89.0099" stroke="#63737A" stroke-width="3.74" stroke-linecap="round" stroke-linejoin="round"/>
<path d="M409.73 96.7L458.57 98.36" stroke="#63737A" stroke-width="3.74" stroke-linecap="round" stroke-linejoin="round"/>
<path d="M386.46 26.87L388.95 29.99L392.49 25.21" stroke="#4151DF" stroke-width="3.74" stroke-linecap="round" stroke-linejoin="round"/>
<path d="M389.16 60.12L391.65 63.03L395.39 58.25" stroke="#4151DF" stroke-width="3.74" stroke-linecap="round" stroke-linejoin="round"/>
<path d="M391.86 92.7499L394.56 95.6599L398.1 90.6699" stroke="#4151DF" stroke-width="3.74" stroke-linecap="round" stroke-linejoin="round"/>
</svg>
