<svg width="492" height="384" viewBox="0 0 492 384" fill="none" xmlns="http://www.w3.org/2000/svg">
<g clip-path="url(#clip0_1_2492)">
<path d="M257.87 63.69C257.87 63.69 258.29 24.32 247.93 1.53003C247.93 1.53003 136.05 21.83 115.33 33.85C115.33 33.85 133.97 52.5 139.78 75.29C146 97.66 257.05 102.22 257.87 63.69Z" fill="white"/>
<path d="M261.19 92.28C261.19 92.28 268.19 20.59 271.55 5.67004C271.55 5.67004 180.8 13.13 146.82 32.61L155.94 108.44L261.19 92.28Z" fill="#F4C2C9"/>
<path d="M361.88 147.8C361.88 147.8 361.47 94.8 375.97 69.49C375.97 69.49 290.61 71.14 271.55 82.33C252.49 93.52 255 147.39 255 147.39C255 147.39 358.15 153.61 361.88 147.8Z" fill="white"/>
<path d="M375.97 124.6H281.91V383.59H375.97V124.6Z" fill="#4151DF"/>
<path d="M329.15 347.95C339.218 347.95 347.38 339.788 347.38 329.72C347.38 319.652 339.218 311.49 329.15 311.49C319.082 311.49 310.92 319.652 310.92 329.72C310.92 339.788 319.082 347.95 329.15 347.95Z" stroke="#22272E" stroke-width="7.46" stroke-linecap="round" stroke-linejoin="round"/>
<path d="M187.84 384V63.6901L131.49 77.3601V350.44L187.84 384Z" fill="#4151DF"/>
<path d="M281.9 63.6901H187.84V384H281.9V63.6901Z" fill="#79B7FF"/>
<path d="M234.67 347.95C244.738 347.95 252.9 339.788 252.9 329.72C252.9 319.652 244.738 311.49 234.67 311.49C224.602 311.49 216.44 319.652 216.44 329.72C216.44 339.788 224.602 347.95 234.67 347.95Z" stroke="#22272E" stroke-width="7.46" stroke-linecap="round" stroke-linejoin="round"/>
<path d="M211.88 259.69H257.87" stroke="#22272E" stroke-width="7.46" stroke-linecap="round" stroke-linejoin="round"/>
<path d="M211.88 277.92H257.87" stroke="#22272E" stroke-width="7.46" stroke-linecap="round" stroke-linejoin="round"/>
</g>
<defs>
<clipPath id="clip0_1_2492">
<rect width="491.3" height="384" fill="white"/>
</clipPath>
</defs>
</svg>
