<svg width="1024" height="768" viewBox="0 0 1024 768" fill="none" xmlns="http://www.w3.org/2000/svg">
<path d="M766.3 563.9L246.3 549C234.608 548.675 223.436 544.099 214.876 536.128C206.316 528.157 200.956 517.339 199.8 505.7L174.7 257.7C174.032 251.062 174.75 244.357 176.808 238.01C178.866 231.664 182.22 225.814 186.658 220.832C191.095 215.849 196.518 211.842 202.585 209.066C208.652 206.289 215.229 204.802 221.9 204.7L800.7 196.7C807.583 196.607 814.406 197.989 820.71 200.753C827.014 203.517 832.654 207.599 837.249 212.724C841.843 217.85 845.287 223.9 847.349 230.468C849.41 237.035 850.042 243.968 849.2 250.8L815.5 521.7C813.998 533.585 808.13 544.487 799.037 552.287C789.944 560.086 778.275 564.225 766.3 563.9Z" fill="#EAF9F3"/>
<mask id="mask0_1_568" style="mask-type:luminance" maskUnits="userSpaceOnUse" x="174" y="196" width="676" height="368">
<path d="M766.3 563.9L246.3 549C234.608 548.675 223.436 544.099 214.876 536.128C206.316 528.157 200.956 517.339 199.8 505.7L174.7 257.7C174.032 251.062 174.75 244.357 176.808 238.01C178.866 231.664 182.22 225.814 186.658 220.832C191.095 215.849 196.518 211.842 202.585 209.066C208.652 206.289 215.229 204.802 221.9 204.7L800.7 196.7C807.583 196.607 814.406 197.989 820.71 200.753C827.014 203.517 832.654 207.599 837.249 212.724C841.843 217.85 845.287 223.9 847.349 230.468C849.41 237.035 850.042 243.968 849.2 250.8L815.5 521.7C813.998 533.585 808.13 544.487 799.037 552.287C789.944 560.086 778.275 564.225 766.3 563.9Z" fill="white"/>
</mask>
<g mask="url(#mask0_1_568)">
<path d="M341.9 608.9H-73.6C-77.5782 608.9 -81.3936 607.32 -84.2066 604.507C-87.0196 601.694 -88.6 597.878 -88.6 593.9V358.3C-88.6 354.322 -87.0196 350.506 -84.2066 347.693C-81.3936 344.88 -77.5782 343.3 -73.6 343.3H341.9C345.878 343.3 349.694 344.88 352.507 347.693C355.32 350.506 356.9 354.322 356.9 358.3V593.9C356.9 597.878 355.32 601.694 352.507 604.507C349.694 607.32 345.878 608.9 341.9 608.9Z" stroke="#858FE8" stroke-width="1.8" stroke-linecap="round" stroke-linejoin="round"/>
<path d="M891 593.1H471.9C467.922 593.1 464.106 591.52 461.293 588.707C458.48 585.894 456.9 582.078 456.9 578.1V233.8C456.9 229.822 458.48 226.006 461.293 223.193C464.106 220.38 467.922 218.8 471.9 218.8H891C894.978 218.8 898.794 220.38 901.607 223.193C904.42 226.006 906 229.822 906 233.8V578.1C906 582.078 904.42 585.894 901.607 588.707C898.794 591.52 894.978 593.1 891 593.1Z" stroke="#858FE8" stroke-width="1.8" stroke-linecap="round" stroke-linejoin="round"/>
<path d="M227.1 343.3H206.8C205.742 343.303 204.72 342.917 203.928 342.217C203.135 341.517 202.627 340.55 202.5 339.5L200.9 325.1C200.834 324.496 200.896 323.884 201.082 323.305C201.268 322.727 201.574 322.194 201.979 321.741C202.385 321.288 202.881 320.926 203.436 320.677C203.991 320.429 204.592 320.301 205.2 320.3H228.7C229.307 320.302 229.908 320.432 230.462 320.681C231.016 320.929 231.512 321.292 231.917 321.744C232.322 322.197 232.628 322.729 232.815 323.307C233.001 323.885 233.064 324.496 233 325.1L231.4 339.5C231.255 340.542 230.741 341.498 229.953 342.195C229.164 342.892 228.152 343.284 227.1 343.3Z" stroke="#858FE8" stroke-width="1.8" stroke-linecap="round" stroke-linejoin="round"/>
<path d="M214.5 320.3C214.5 320.3 206.5 319.5 204.9 308.7C204.9 308.7 212.1 310.8 214.4 315.9C214.4 315.9 215.4 304.5 220.8 303.4C220.8 303.4 223.2 311.9 219.4 316.1C219.4 316.1 222.3 311.3 229.7 311.4C229.001 313.506 227.797 315.409 226.193 316.943C224.59 318.477 222.635 319.595 220.5 320.2" fill="#858FE8"/>
<path d="M338.7 393H248.5C247.389 392.992 246.325 392.547 245.539 391.761C244.753 390.975 244.308 389.911 244.3 388.8V361.4C244.308 360.289 244.753 359.225 245.539 358.439C246.325 357.653 247.389 357.208 248.5 357.2H338.7C339.811 357.208 340.875 357.653 341.661 358.439C342.447 359.225 342.892 360.289 342.9 361.4V388.8C342.914 389.355 342.814 389.908 342.608 390.423C342.402 390.939 342.093 391.408 341.7 391.8C341.308 392.193 340.839 392.502 340.323 392.708C339.808 392.914 339.255 393.014 338.7 393Z" stroke="#858FE8" stroke-width="1.8" stroke-linecap="round" stroke-linejoin="round"/>
<path d="M304 366.8H283.2C282.805 366.79 282.43 366.629 282.151 366.349C281.871 366.07 281.71 365.695 281.7 365.3C281.71 364.905 281.871 364.53 282.151 364.251C282.43 363.971 282.805 363.81 283.2 363.8H304C304.395 363.81 304.77 363.971 305.049 364.251C305.329 364.53 305.49 364.905 305.5 365.3C305.504 365.498 305.468 365.695 305.394 365.879C305.32 366.063 305.21 366.23 305.07 366.37C304.93 366.51 304.763 366.62 304.579 366.694C304.395 366.768 304.198 366.804 304 366.8Z" fill="#858FE8"/>
<path d="M338.7 438.8H248.5C247.389 438.792 246.325 438.347 245.539 437.561C244.753 436.775 244.308 435.711 244.3 434.6V407.2C244.308 406.089 244.753 405.025 245.539 404.239C246.325 403.453 247.389 403.008 248.5 403H338.7C339.811 403.008 340.875 403.453 341.661 404.239C342.447 405.025 342.892 406.089 342.9 407.2V434.6C342.914 435.155 342.814 435.708 342.608 436.223C342.402 436.739 342.093 437.208 341.7 437.6C341.308 437.993 340.839 438.302 340.323 438.508C339.808 438.714 339.255 438.814 338.7 438.8Z" stroke="#858FE8" stroke-width="1.8" stroke-linecap="round" stroke-linejoin="round"/>
<path d="M304 412.6H283.2C282.805 412.59 282.43 412.429 282.151 412.149C281.871 411.87 281.71 411.495 281.7 411.1C281.71 410.705 281.871 410.33 282.151 410.051C282.43 409.771 282.805 409.61 283.2 409.6H304C304.395 409.61 304.77 409.771 305.049 410.051C305.329 410.33 305.49 410.705 305.5 411.1C305.504 411.298 305.468 411.495 305.394 411.679C305.32 411.863 305.21 412.03 305.07 412.17C304.93 412.31 304.763 412.42 304.579 412.494C304.395 412.568 304.198 412.604 304 412.6Z" fill="#858FE8"/>
<path d="M801.9 471.1H711.7C710.589 471.092 709.525 470.647 708.739 469.861C707.953 469.075 707.508 468.011 707.5 466.9V439.5C707.508 438.389 707.953 437.325 708.739 436.539C709.525 435.753 710.589 435.308 711.7 435.3H801.9C803.012 435.308 804.075 435.753 804.861 436.539C805.647 437.325 806.092 438.389 806.1 439.5V466.9C806.114 467.455 806.014 468.008 805.808 468.523C805.602 469.039 805.293 469.508 804.9 469.9C804.508 470.293 804.039 470.602 803.523 470.808C803.008 471.014 802.455 471.114 801.9 471.1Z" stroke="#858FE8" stroke-width="1.8" stroke-linecap="round" stroke-linejoin="round"/>
<path d="M767.2 445H746.4C746.005 444.99 745.63 444.829 745.351 444.549C745.071 444.27 744.91 443.895 744.9 443.5C744.91 443.105 745.071 442.73 745.351 442.451C745.63 442.171 746.005 442.01 746.4 442H767.2C767.595 442.01 767.97 442.171 768.249 442.451C768.529 442.73 768.69 443.105 768.7 443.5C768.69 443.895 768.529 444.27 768.249 444.549C767.97 444.829 767.595 444.99 767.2 445Z" fill="#858FE8"/>
<path d="M686.1 471.1H595.9C594.789 471.092 593.725 470.647 592.939 469.861C592.153 469.075 591.708 468.011 591.7 466.9V439.5C591.708 438.389 592.153 437.325 592.939 436.539C593.725 435.753 594.789 435.308 595.9 435.3H686.1C687.211 435.308 688.275 435.753 689.061 436.539C689.847 437.325 690.292 438.389 690.3 439.5V466.9C690.292 468.011 689.847 469.075 689.061 469.861C688.275 470.647 687.211 471.092 686.1 471.1Z" stroke="#858FE8" stroke-width="1.8" stroke-linecap="round" stroke-linejoin="round"/>
<path d="M651.4 445H630.6C630.205 444.99 629.83 444.829 629.551 444.549C629.271 444.27 629.11 443.895 629.1 443.5C629.11 443.105 629.271 442.73 629.551 442.451C629.83 442.171 630.205 442.01 630.6 442H651.4C651.795 442.01 652.17 442.171 652.449 442.451C652.729 442.73 652.89 443.105 652.9 443.5C652.89 443.895 652.729 444.27 652.449 444.549C652.17 444.829 651.795 444.99 651.4 445Z" fill="#858FE8"/>
<path d="M223.7 393H133.5C132.389 392.992 131.325 392.547 130.539 391.761C129.753 390.975 129.308 389.911 129.3 388.8V361.4C129.308 360.289 129.753 359.225 130.539 358.439C131.325 357.653 132.389 357.208 133.5 357.2H223.7C224.811 357.208 225.875 357.653 226.661 358.439C227.447 359.225 227.892 360.289 227.9 361.4V388.8C227.914 389.355 227.814 389.908 227.608 390.423C227.402 390.939 227.093 391.408 226.7 391.8C226.308 392.193 225.839 392.502 225.323 392.708C224.808 392.914 224.255 393.014 223.7 393Z" stroke="#858FE8" stroke-width="1.8" stroke-linecap="round" stroke-linejoin="round"/>
<path d="M189 366.8H168.2C167.805 366.79 167.43 366.629 167.151 366.349C166.871 366.07 166.71 365.695 166.7 365.3C166.71 364.905 166.871 364.53 167.151 364.251C167.43 363.971 167.805 363.81 168.2 363.8H189C189.395 363.81 189.77 363.971 190.049 364.251C190.329 364.53 190.49 364.905 190.5 365.3C190.512 365.5 190.481 365.7 190.41 365.888C190.338 366.075 190.228 366.245 190.086 366.386C189.945 366.528 189.775 366.638 189.587 366.71C189.4 366.781 189.2 366.812 189 366.8Z" fill="#858FE8"/>
<path d="M223.7 438.8H133.5C132.389 438.792 131.325 438.347 130.539 437.561C129.753 436.775 129.308 435.711 129.3 434.6V407.2C129.308 406.089 129.753 405.025 130.539 404.239C131.325 403.453 132.389 403.008 133.5 403H223.7C224.811 403.008 225.875 403.453 226.661 404.239C227.447 405.025 227.892 406.089 227.9 407.2V434.6C227.914 435.155 227.814 435.708 227.608 436.223C227.402 436.739 227.093 437.208 226.7 437.6C226.308 437.993 225.839 438.302 225.323 438.508C224.808 438.714 224.255 438.814 223.7 438.8Z" stroke="#858FE8" stroke-width="1.8" stroke-linecap="round" stroke-linejoin="round"/>
<path d="M189 412.6H168.2C167.805 412.59 167.43 412.429 167.151 412.149C166.871 411.87 166.71 411.495 166.7 411.1C166.71 410.705 166.871 410.33 167.151 410.051C167.43 409.771 167.805 409.61 168.2 409.6H189C189.395 409.61 189.77 409.771 190.049 410.051C190.329 410.33 190.49 410.705 190.5 411.1C190.512 411.3 190.481 411.5 190.41 411.687C190.338 411.875 190.228 412.045 190.086 412.186C189.945 412.328 189.775 412.438 189.587 412.509C189.4 412.581 189.2 412.612 189 412.6Z" fill="#858FE8"/>
<path d="M933.2 323.6H478.2C476.984 323.587 475.822 323.098 474.962 322.238C474.102 321.378 473.613 320.216 473.6 319V239.3C473.613 238.084 474.102 236.922 474.962 236.062C475.822 235.202 476.984 234.713 478.2 234.7H933.2C934.416 234.713 935.578 235.202 936.438 236.062C937.298 236.922 937.787 238.084 937.8 239.3V319C937.809 319.607 937.697 320.209 937.469 320.771C937.241 321.334 936.903 321.845 936.474 322.274C936.045 322.703 935.534 323.041 934.971 323.269C934.409 323.497 933.807 323.609 933.2 323.6Z" stroke="#858FE8" stroke-width="1.8" stroke-linecap="round" stroke-linejoin="round"/>
<path d="M933.2 422.6H478.2C476.984 422.587 475.822 422.098 474.962 421.238C474.102 420.378 473.613 419.216 473.6 418V338.3C473.613 337.084 474.102 335.922 474.962 335.062C475.822 334.202 476.984 333.713 478.2 333.7H933.2C934.416 333.713 935.578 334.202 936.438 335.062C937.298 335.922 937.787 337.084 937.8 338.3V418C937.801 418.604 937.683 419.203 937.453 419.762C937.222 420.321 936.883 420.828 936.456 421.256C936.028 421.683 935.521 422.022 934.962 422.253C934.403 422.483 933.804 422.601 933.2 422.6Z" stroke="#858FE8" stroke-width="1.8" stroke-linecap="round" stroke-linejoin="round"/>
<path d="M514.2 273.3H504.3V323.6H514.2V273.3Z" stroke="#858FE8" stroke-width="1.8" stroke-linecap="round" stroke-linejoin="round"/>
<path d="M524.4 287H514.1V323.6H524.4V287Z" stroke="#858FE8" stroke-width="1.8" stroke-linecap="round" stroke-linejoin="round"/>
<path d="M812.5 372.1H802.6V422.4H812.5V372.1Z" stroke="#858FE8" stroke-width="1.8" stroke-linecap="round" stroke-linejoin="round"/>
<path d="M822.8 385.8H812.5V422.4H822.8V385.8Z" stroke="#858FE8" stroke-width="1.8" stroke-linecap="round" stroke-linejoin="round"/>
<path d="M792.4 372.1H782.5V422.4H792.4V372.1Z" stroke="#858FE8" stroke-width="1.8" stroke-linecap="round" stroke-linejoin="round"/>
<path d="M773.164 370.954L758.022 418.921L767.463 421.901L782.605 373.935L773.164 370.954Z" stroke="#858FE8" stroke-width="1.8" stroke-linecap="round" stroke-linejoin="round"/>
<path d="M802.7 385.8H792.4V422.4H802.7V385.8Z" stroke="#858FE8" stroke-width="1.8" stroke-linecap="round" stroke-linejoin="round"/>
<path d="M679 273.3H669.1V323.6H679V273.3Z" stroke="#858FE8" stroke-width="1.8" stroke-linecap="round" stroke-linejoin="round"/>
<path d="M689.3 287H679V323.6H689.3V287Z" stroke="#858FE8" stroke-width="1.8" stroke-linecap="round" stroke-linejoin="round"/>
<path d="M581.2 273.3H571.3V323.6H581.2V273.3Z" stroke="#858FE8" stroke-width="1.8" stroke-linecap="round" stroke-linejoin="round"/>
<path d="M561.969 272.149L546.827 320.115L556.268 323.096L571.41 275.129L561.969 272.149Z" stroke="#858FE8" stroke-width="1.8" stroke-linecap="round" stroke-linejoin="round"/>
<path d="M591.5 287H581.2V323.6H591.5V287Z" stroke="#858FE8" stroke-width="1.8" stroke-linecap="round" stroke-linejoin="round"/>
<path d="M812.4 279.9L813.5 265C813.521 264.767 813.493 264.532 813.416 264.31C813.34 264.089 813.217 263.886 813.056 263.716C812.896 263.546 812.7 263.412 812.484 263.323C812.267 263.234 812.034 263.192 811.8 263.2H803.2C802.968 263.201 802.74 263.249 802.527 263.341C802.315 263.433 802.123 263.568 801.964 263.736C801.805 263.904 801.682 264.103 801.603 264.32C801.523 264.538 801.488 264.769 801.5 265L802.6 279.9C802.6 279.9 793.6 285.7 793.7 290.5C793.8 294.2 796 311.9 797 319.7C797.127 320.75 797.635 321.717 798.428 322.417C799.22 323.117 800.242 323.503 801.3 323.5H813.7C814.758 323.503 815.78 323.117 816.572 322.417C817.365 321.717 817.873 320.75 818 319.7C819 311.9 821.2 294.2 821.3 290.5C821.4 285.7 812.4 279.9 812.4 279.9Z" fill="#858FE8"/>
<path d="M772.5 279.9L773.6 265C773.621 264.767 773.593 264.532 773.516 264.31C773.44 264.089 773.317 263.886 773.156 263.716C772.996 263.546 772.8 263.412 772.584 263.323C772.367 263.234 772.134 263.192 771.9 263.2H763.3C763.068 263.201 762.84 263.249 762.627 263.341C762.415 263.433 762.223 263.568 762.064 263.736C761.905 263.904 761.782 264.103 761.702 264.32C761.623 264.538 761.588 264.769 761.6 265L762.7 279.9C762.7 279.9 753.7 285.7 753.8 290.5C753.9 294.2 756.1 311.9 757.1 319.7C757.227 320.75 757.735 321.717 758.528 322.417C759.32 323.117 760.342 323.503 761.4 323.5H773.8C774.858 323.503 775.88 323.117 776.672 322.417C777.465 321.717 777.973 320.75 778.1 319.7C779.1 311.9 781.3 294.2 781.4 290.5C781.5 285.7 772.5 279.9 772.5 279.9Z" fill="#858FE8"/>
<path d="M173.2 517H1129" stroke="#858FE8" stroke-width="1.8" stroke-linecap="round" stroke-linejoin="round"/>
</g>
<path d="M517.4 429.6L516.1 435.9C515.831 437.19 515.129 438.35 514.11 439.187C513.092 440.023 511.818 440.487 510.5 440.5H497.6C496.281 440.49 495.005 440.028 493.986 439.191C492.967 438.354 492.266 437.192 492 435.9L490.7 429.6L504 429L517.4 429.6Z" fill="#22272E"/>
<path d="M507.5 437.4H500.3V541.4H507.5V437.4Z" fill="#22272E"/>
<path d="M507.4 548H500.5C499.944 547.997 499.411 547.775 499.018 547.382C498.625 546.989 498.403 546.456 498.4 545.9V526.2C498.403 525.644 498.625 525.111 499.018 524.718C499.411 524.325 499.944 524.103 500.5 524.1H507.4C507.956 524.103 508.489 524.325 508.882 524.718C509.275 525.111 509.497 525.644 509.5 526.2V545.9C509.463 546.445 509.229 546.957 508.843 547.343C508.457 547.729 507.945 547.963 507.4 548Z" fill="#22272E"/>
<path d="M504.7 542C504.7 542 497.4 547.9 493.5 570" stroke="#22272E" stroke-width="4" stroke-linecap="round" stroke-linejoin="round"/>
<path d="M502.1 543.3C502.1 543.3 480.1 538 468.1 564.1" stroke="#22272E" stroke-width="4" stroke-linecap="round" stroke-linejoin="round"/>
<path d="M505.9 542.8C505.9 542.8 525.6 539.3 538 567.3" stroke="#22272E" stroke-width="4" stroke-linecap="round" stroke-linejoin="round"/>
<path d="M468.1 573C473.015 573 477 569.015 477 564.1C477 559.185 473.015 555.2 468.1 555.2C463.185 555.2 459.2 559.185 459.2 564.1C459.2 569.015 463.185 573 468.1 573Z" fill="#4151DF"/>
<path d="M534.2 573C539.115 573 543.1 569.015 543.1 564.1C543.1 559.185 539.115 555.2 534.2 555.2C529.285 555.2 525.3 559.185 525.3 564.1C525.3 569.015 529.285 573 534.2 573Z" stroke="#22272E" stroke-width="1.8" stroke-linecap="round" stroke-linejoin="round"/>
<path d="M492.4 585.2C497.315 585.2 501.3 581.215 501.3 576.3C501.3 571.385 497.315 567.4 492.4 567.4C487.485 567.4 483.5 571.385 483.5 576.3C483.5 581.215 487.485 585.2 492.4 585.2Z" fill="#4151DF"/>
<path d="M504.1 431.5C537.734 431.5 565 426.127 565 419.5C565 412.873 537.734 407.5 504.1 407.5C470.466 407.5 443.2 412.873 443.2 419.5C443.2 426.127 470.466 431.5 504.1 431.5Z" fill="#79B7FF"/>
<path d="M504.1 425.3C537.734 425.3 565 419.927 565 413.3C565 406.673 537.734 401.3 504.1 401.3C470.466 401.3 443.2 406.673 443.2 413.3C443.2 419.927 470.466 425.3 504.1 425.3Z" fill="#22272E"/>
<path d="M431.7 550.6C432.4 555.3 433.3 561.9 432.9 564.3C432.9 564.3 434.6 568.4 444 567.8C453.4 567.2 458.2 562.1 458.2 562.1C458.2 562.1 457.9 556.5 457.5 550.8C448.971 552.438 440.202 552.37 431.7 550.6Z" fill="#F4C2C9"/>
<path d="M430.9 545.7C430.9 545.7 431.3 547.8 431.7 550.7C440.236 552.471 449.038 552.539 457.6 550.9C457.3 545.3 457 539.6 457 538.4C456.9 535.9 429.7 538.2 430.9 545.7Z" fill="#E26E85"/>
<path d="M433 562.1C432.168 564.426 431.467 566.796 430.9 569.2C429.4 574.9 415.5 590.5 415.9 593.9C416.3 597.3 418.8 600.4 429.1 600.4C439.4 600.4 451.6 601 455 599.6C456.232 598.952 457.268 597.985 458 596.8C460.555 593.052 461.657 588.502 461.1 584C460.3 576.7 458.9 564.6 458.9 563.5C458.904 562.491 458.664 561.496 458.2 560.6C458.2 560.6 455.4 564.5 452 565.2C448.6 565.9 448.3 561.7 442.9 560.6C437.5 559.5 435.1 564.6 434.2 564.8C433.2 564.8 433 562.9 433 562.1Z" fill="#22272E"/>
<path d="M547.3 557.8C549 552.7 550.7 547.4 551.2 545.5C552.3 541.6 525.4 536.3 523.6 544.6L522.6 549.4C529.3 555 538.6 560.1 547.3 557.8Z" fill="#E26E85"/>
<path d="M522.6 549.4L519.5 564C519.5 564 521.1 566.9 528.4 569.1C535.7 571.3 543.6 569.1 543.6 569.1C543.6 569.1 545.4 563.5 547.3 557.7C538.6 560.1 529.3 555 522.6 549.4Z" fill="#F4C2C9"/>
<path d="M520.5 559.5C519.064 561.259 517.948 563.256 517.2 565.4C515.6 569.4 498.9 588.6 498.6 591.9C498.3 595.2 501.7 598.4 505.2 599.6C508.7 600.8 532.3 603.8 536.6 602.3C540.9 600.8 543 591.9 543.1 582.7C543.275 576.441 544.045 570.213 545.4 564.1C545.032 564.92 544.479 565.645 543.786 566.217C543.092 566.79 542.276 567.194 541.4 567.4C538.4 568.2 537.3 561.5 532.4 559.2C527.5 556.9 522.7 561.8 521.6 562.6C520.5 563.4 520.3 560.3 520.5 559.5Z" fill="#22272E"/>
<path d="M471.5 363.6C471.5 363.6 461.6 371.6 450 379.9C438.4 388.2 403.7 407.5 403.8 429C403.9 442.4 411.4 485 416.2 506.1C421 527.2 415.6 535.8 421.9 543.2C428.2 550.6 446.9 548.7 454.9 545.4C462.9 542.1 467.4 533.8 463.5 521.6C459.6 509.4 456.8 487.2 458.2 470.6C459.027 459.518 459.127 448.395 458.5 437.3C463.761 434.102 469.321 431.423 475.1 429.3C480.119 427.566 485.028 425.529 489.8 423.2C489.8 423.2 520.3 422.9 522.2 423.8C524.1 424.7 534.1 441.5 534.7 444C534.7 444 532.8 450.7 530.8 475.3C528.8 499.9 515.2 524.4 517.7 534.6C520.2 544.8 526.3 549.3 534.6 551.8C542.9 554.3 554.8 554 560.1 542.7C565.4 531.4 569.2 504.4 574.5 489.2C579.8 474 588.1 448.7 587.5 436.8C586.9 424.9 571.5 383.6 562.2 369.2C552.9 354.8 479.1 347.4 471.5 363.6Z" fill="#22272E"/>
<path d="M458.4 437.4C458.4 437.4 457.8 430.7 456.9 428.2" stroke="#63737A" stroke-width="1.8" stroke-linecap="round" stroke-linejoin="round"/>
<path d="M534.7 444C534.7 444 536.3 436.6 538.1 432.7" stroke="#63737A" stroke-width="1.8" stroke-linecap="round" stroke-linejoin="round"/>
<path d="M427.5 446.8C436.447 446.8 443.7 439.547 443.7 430.6C443.7 421.653 436.447 414.4 427.5 414.4C418.553 414.4 411.3 421.653 411.3 430.6C411.3 439.547 418.553 446.8 427.5 446.8Z" stroke="#63737A" stroke-width="1.8" stroke-linecap="round" stroke-linejoin="round"/>
<path d="M563.3 450.9C572.247 450.9 579.5 443.647 579.5 434.7C579.5 425.753 572.247 418.5 563.3 418.5C554.353 418.5 547.1 425.753 547.1 434.7C547.1 443.647 554.353 450.9 563.3 450.9Z" stroke="#63737A" stroke-width="1.8" stroke-linecap="round" stroke-linejoin="round"/>
<path d="M430.8 577.3C430.8 577.3 439.9 570.4 452.8 578" stroke="white" stroke-width="1.8" stroke-linecap="round" stroke-linejoin="round"/>
<path d="M427.5 584C427.5 584 436.6 577.1 449.5 584.7" stroke="white" stroke-width="1.8" stroke-linecap="round" stroke-linejoin="round"/>
<path d="M516.1 574.4C516.1 574.4 527.6 569.3 538.8 580.4" stroke="white" stroke-width="1.8" stroke-linecap="round" stroke-linejoin="round"/>
<path d="M512.7 580.9C512.7 580.9 524.2 575.8 535.4 586.9" stroke="white" stroke-width="1.8" stroke-linecap="round" stroke-linejoin="round"/>
<path d="M453.1 326.3C453.1 326.3 450.7 325.1 448.5 319.9C446.3 314.7 453.7 313 454.4 315.9C455.1 318.8 453.1 326.3 453.1 326.3Z" fill="#22272E"/>
<path d="M416.4 316.2C416.4 316.2 420.4 325.6 434.4 325.4C445.4 325.3 478.1 314.5 480.2 313.6C482.3 312.7 492.6 299.8 489 285.9C485.4 272 475.5 273.1 475.5 273.1C475.5 273.1 463.9 277.3 442 292.7C420.1 308.1 416.8 308.8 416.4 316.2Z" fill="#F4C2C9"/>
<path d="M449.5 306.1C449.5 306.1 452.5 317.3 453.1 326.3C453.1 326.3 481.1 316.6 483.5 314.6C485.9 312.6 491.1 293.7 486.6 284.3C482.1 274.9 476 271.4 476 271.4C467.379 276.034 459.001 281.107 450.9 286.6C437.9 295.5 449.5 306.1 449.5 306.1Z" fill="#4151DF"/>
<path d="M458.8 324.3C458.8 324.3 457.1 302.5 449.9 286.6" stroke="#22272E" stroke-width="1.8" stroke-linecap="round" stroke-linejoin="round"/>
<path d="M575.2 277.1C561.3 265.6 542.5 268.4 533.1 268.8C523.7 269.2 515.4 268.6 497.2 267C487.3 266.1 480.9 268.3 477.1 270.6C474.241 272.318 472.162 275.078 471.3 278.3C469.86 284.663 469.189 291.177 469.3 297.7C469.505 303.671 470.14 309.62 471.2 315.5C472 323.4 472.7 331.8 472.7 335.6C472.7 343.9 466.6 363.3 466.9 370.2C467.2 377.1 486.6 383 504.9 383.8C523.2 384.6 554.5 376.3 559.8 374.9C565.1 373.5 564.9 368 563.4 358.3C562.3 351.4 562.5 333.8 564.2 318.9C567.1 321.4 571.2 324.9 574.9 328.2C582.9 319.8 591.9 312 600.6 304C591.6 293 581.7 282.5 575.2 277.1Z" fill="#79B7FF"/>
<mask id="mask1_1_568" style="mask-type:luminance" maskUnits="userSpaceOnUse" x="466" y="266" width="135" height="118">
<path d="M575.2 277.1C561.3 265.6 542.5 268.4 533.1 268.8C523.7 269.2 515.4 268.6 497.2 267C487.3 266.1 480.9 268.3 477.1 270.6C474.241 272.318 472.162 275.078 471.3 278.3C469.86 284.663 469.189 291.177 469.3 297.7C469.505 303.671 470.14 309.62 471.2 315.5C472 323.4 472.7 331.8 472.7 335.6C472.7 343.9 466.6 363.3 466.9 370.2C467.2 377.1 486.6 383 504.9 383.8C523.2 384.6 554.5 376.3 559.8 374.9C565.1 373.5 564.9 368 563.4 358.3C562.3 351.4 562.5 333.8 564.2 318.9C567.1 321.4 571.2 324.9 574.9 328.2C582.9 319.8 591.9 312 600.6 304C591.6 293 581.7 282.5 575.2 277.1Z" fill="white"/>
</mask>
<g mask="url(#mask1_1_568)">
<path d="M477 368.8L477.9 369.8C478.213 370.121 478.388 370.552 478.388 371C478.388 371.448 478.213 371.879 477.9 372.2L476.9 373.1C476.579 373.413 476.148 373.588 475.7 373.588C475.252 373.588 474.821 373.413 474.5 373.1L473.6 372.1C473.287 371.779 473.112 371.348 473.112 370.9C473.112 370.452 473.287 370.021 473.6 369.7L474.6 368.8C474.753 368.634 474.938 368.501 475.145 368.411C475.351 368.32 475.574 368.273 475.8 368.273C476.026 368.273 476.249 368.32 476.455 368.411C476.662 368.501 476.847 368.634 477 368.8Z" fill="#F8AB5D"/>
<path d="M477.2 353.1L478.1 354.1C478.413 354.421 478.588 354.852 478.588 355.3C478.588 355.748 478.413 356.179 478.1 356.5L477.1 357.4C476.779 357.713 476.348 357.888 475.9 357.888C475.452 357.888 475.021 357.713 474.7 357.4L473.8 356.4C473.487 356.079 473.312 355.648 473.312 355.2C473.312 354.752 473.487 354.321 473.8 354L474.8 353.1C474.953 352.934 475.138 352.801 475.345 352.711C475.551 352.62 475.774 352.573 476 352.573C476.226 352.573 476.449 352.62 476.655 352.711C476.862 352.801 477.047 352.934 477.2 353.1Z" fill="#F8AB5D"/>
<path d="M477.4 337.4L478.3 338.4C478.613 338.721 478.788 339.152 478.788 339.6C478.788 340.048 478.613 340.479 478.3 340.8L477.3 341.7C476.979 342.013 476.548 342.188 476.1 342.188C475.652 342.188 475.221 342.013 474.9 341.7L474 340.7C473.687 340.379 473.512 339.948 473.512 339.5C473.512 339.052 473.687 338.621 474 338.3L475 337.4C475.153 337.234 475.338 337.101 475.545 337.011C475.751 336.92 475.974 336.873 476.2 336.873C476.426 336.873 476.649 336.92 476.855 337.011C477.062 337.101 477.247 337.234 477.4 337.4Z" fill="#F8AB5D"/>
<path d="M477.7 321.7L478.6 322.7C478.913 323.021 479.088 323.452 479.088 323.9C479.088 324.348 478.913 324.779 478.6 325.1L477.6 326C477.279 326.313 476.848 326.488 476.4 326.488C475.952 326.488 475.521 326.313 475.2 326L474.3 325C473.987 324.679 473.812 324.248 473.812 323.8C473.812 323.352 473.987 322.921 474.3 322.6L475.3 321.7C475.453 321.534 475.638 321.401 475.845 321.311C476.051 321.22 476.274 321.173 476.5 321.173C476.726 321.173 476.949 321.22 477.155 321.311C477.362 321.401 477.547 321.534 477.7 321.7Z" fill="#F8AB5D"/>
<path d="M491.1 369L492 370C492.313 370.321 492.488 370.752 492.488 371.2C492.488 371.648 492.313 372.079 492 372.4L491 373.3C490.679 373.613 490.248 373.788 489.8 373.788C489.352 373.788 488.921 373.613 488.6 373.3L487.7 372.3C487.387 371.979 487.212 371.548 487.212 371.1C487.212 370.652 487.387 370.221 487.7 369.9L488.7 369C488.853 368.834 489.038 368.701 489.245 368.611C489.451 368.52 489.674 368.473 489.9 368.473C490.126 368.473 490.349 368.52 490.555 368.611C490.762 368.701 490.947 368.834 491.1 369Z" fill="#F8AB5D"/>
<path d="M491.3 353.3L492.2 354.3C492.513 354.621 492.688 355.052 492.688 355.5C492.688 355.948 492.513 356.379 492.2 356.7L491.2 357.6C490.879 357.913 490.448 358.088 490 358.088C489.552 358.088 489.121 357.913 488.8 357.6L487.9 356.6C487.587 356.279 487.412 355.848 487.412 355.4C487.412 354.952 487.587 354.521 487.9 354.2L488.9 353.3C489.053 353.134 489.238 353.001 489.445 352.911C489.651 352.82 489.874 352.773 490.1 352.773C490.326 352.773 490.549 352.82 490.755 352.911C490.962 353.001 491.147 353.134 491.3 353.3Z" fill="#F8AB5D"/>
<path d="M491.5 337.6L492.4 338.6C492.713 338.921 492.888 339.352 492.888 339.8C492.888 340.248 492.713 340.679 492.4 341L491.4 341.9C491.079 342.213 490.648 342.388 490.2 342.388C489.752 342.388 489.321 342.213 489 341.9L488.1 340.9C487.787 340.579 487.612 340.148 487.612 339.7C487.612 339.252 487.787 338.821 488.1 338.5L489.1 337.6C489.253 337.434 489.438 337.301 489.645 337.211C489.851 337.12 490.074 337.073 490.3 337.073C490.526 337.073 490.749 337.12 490.955 337.211C491.162 337.301 491.347 337.434 491.5 337.6Z" fill="#F8AB5D"/>
<path d="M491.8 321.9L492.7 322.9C493.013 323.221 493.188 323.652 493.188 324.1C493.188 324.548 493.013 324.979 492.7 325.3L491.7 326.2C491.379 326.513 490.948 326.688 490.5 326.688C490.052 326.688 489.621 326.513 489.3 326.2L488.4 325.2C488.087 324.879 487.912 324.448 487.912 324C487.912 323.552 488.087 323.121 488.4 322.8L489.4 321.9C489.721 321.587 490.152 321.412 490.6 321.412C491.048 321.412 491.479 321.587 491.8 321.9Z" fill="#F8AB5D"/>
<path d="M505.2 369.2L506.1 370.2C506.413 370.521 506.588 370.952 506.588 371.4C506.588 371.848 506.413 372.279 506.1 372.6L505.1 373.5C504.779 373.813 504.348 373.988 503.9 373.988C503.452 373.988 503.021 373.813 502.7 373.5L501.8 372.5C501.487 372.179 501.312 371.748 501.312 371.3C501.312 370.852 501.487 370.421 501.8 370.1L502.8 369.2C502.953 369.034 503.138 368.901 503.345 368.811C503.551 368.72 503.774 368.673 504 368.673C504.226 368.673 504.449 368.72 504.655 368.811C504.862 368.901 505.047 369.034 505.2 369.2Z" fill="#F8AB5D"/>
<path d="M505.4 353.5L506.3 354.5C506.613 354.821 506.788 355.252 506.788 355.7C506.788 356.148 506.613 356.579 506.3 356.9L505.3 357.8C504.979 358.113 504.548 358.288 504.1 358.288C503.652 358.288 503.221 358.113 502.9 357.8L502 356.8C501.687 356.479 501.512 356.048 501.512 355.6C501.512 355.152 501.687 354.721 502 354.4L503 353.5C503.153 353.334 503.338 353.201 503.545 353.111C503.751 353.02 503.974 352.973 504.2 352.973C504.426 352.973 504.649 353.02 504.855 353.111C505.062 353.201 505.247 353.334 505.4 353.5Z" fill="#F8AB5D"/>
<path d="M505.7 337.8L506.6 338.8C506.913 339.121 507.088 339.552 507.088 340C507.088 340.448 506.913 340.879 506.6 341.2L505.6 342.1C505.279 342.413 504.848 342.588 504.4 342.588C503.952 342.588 503.521 342.413 503.2 342.1L502.3 341.1C501.987 340.779 501.812 340.348 501.812 339.9C501.812 339.452 501.987 339.021 502.3 338.7L503.3 337.8C503.621 337.487 504.052 337.312 504.5 337.312C504.948 337.312 505.379 337.487 505.7 337.8Z" fill="#F8AB5D"/>
<path d="M505.9 322.1L506.8 323.1C507.113 323.421 507.288 323.852 507.288 324.3C507.288 324.748 507.113 325.179 506.8 325.5L505.8 326.4C505.479 326.713 505.048 326.888 504.6 326.888C504.152 326.888 503.721 326.713 503.4 326.4L502.5 325.4C502.187 325.079 502.012 324.648 502.012 324.2C502.012 323.752 502.187 323.321 502.5 323L503.5 322.1C503.821 321.787 504.252 321.612 504.7 321.612C505.148 321.612 505.579 321.787 505.9 322.1Z" fill="#F8AB5D"/>
<path d="M519.3 369.4L520.2 370.4C520.513 370.721 520.688 371.152 520.688 371.6C520.688 372.048 520.513 372.479 520.2 372.8L519.2 373.7C518.879 374.013 518.448 374.188 518 374.188C517.552 374.188 517.121 374.013 516.8 373.7L515.9 372.7C515.587 372.379 515.412 371.948 515.412 371.5C515.412 371.052 515.587 370.621 515.9 370.3L516.9 369.4C517.053 369.234 517.238 369.101 517.445 369.011C517.651 368.92 517.874 368.873 518.1 368.873C518.326 368.873 518.549 368.92 518.755 369.011C518.962 369.101 519.147 369.234 519.3 369.4Z" fill="#F8AB5D"/>
<path d="M519.6 353.7L520.5 354.7C520.813 355.021 520.988 355.452 520.988 355.9C520.988 356.348 520.813 356.779 520.5 357.1L519.5 358C519.179 358.313 518.748 358.488 518.3 358.488C517.852 358.488 517.421 358.313 517.1 358L516.2 357C515.887 356.679 515.712 356.248 515.712 355.8C515.712 355.352 515.887 354.921 516.2 354.6L517.2 353.7C517.353 353.534 517.538 353.401 517.745 353.311C517.951 353.22 518.174 353.173 518.4 353.173C518.626 353.173 518.849 353.22 519.055 353.311C519.262 353.401 519.447 353.534 519.6 353.7Z" fill="#F8AB5D"/>
<path d="M519.8 338L520.7 339C521.013 339.321 521.188 339.752 521.188 340.2C521.188 340.648 521.013 341.079 520.7 341.4L519.7 342.3C519.379 342.613 518.948 342.788 518.5 342.788C518.052 342.788 517.621 342.613 517.3 342.3L516.4 341.3C516.087 340.979 515.912 340.548 515.912 340.1C515.912 339.652 516.087 339.221 516.4 338.9L517.4 338C517.721 337.687 518.152 337.512 518.6 337.512C519.048 337.512 519.479 337.687 519.8 338Z" fill="#F8AB5D"/>
<path d="M520 322.4L520.9 323.4C521.213 323.721 521.388 324.152 521.388 324.6C521.388 325.048 521.213 325.479 520.9 325.8L519.9 326.7C519.579 327.013 519.148 327.188 518.7 327.188C518.252 327.188 517.821 327.013 517.5 326.7L516.6 325.7C516.287 325.379 516.112 324.948 516.112 324.5C516.112 324.052 516.287 323.621 516.6 323.3L517.6 322.4C517.753 322.234 517.938 322.101 518.145 322.011C518.351 321.92 518.574 321.873 518.8 321.873C519.026 321.873 519.249 321.92 519.455 322.011C519.662 322.101 519.847 322.234 520 322.4Z" fill="#F8AB5D"/>
<path d="M533.5 369.6L534.4 370.6C534.713 370.921 534.888 371.352 534.888 371.8C534.888 372.248 534.713 372.679 534.4 373L533.4 373.9C533.079 374.213 532.648 374.388 532.2 374.388C531.752 374.388 531.321 374.213 531 373.9L530.1 372.9C529.787 372.579 529.612 372.148 529.612 371.7C529.612 371.252 529.787 370.821 530.1 370.5L531.1 369.6C531.253 369.434 531.438 369.301 531.645 369.211C531.851 369.12 532.074 369.073 532.3 369.073C532.526 369.073 532.749 369.12 532.955 369.211C533.162 369.301 533.347 369.434 533.5 369.6Z" fill="#F8AB5D"/>
<path d="M533.7 353.9L534.6 354.9C534.913 355.221 535.088 355.652 535.088 356.1C535.088 356.548 534.913 356.979 534.6 357.3L533.6 358.2C533.279 358.513 532.848 358.688 532.4 358.688C531.952 358.688 531.521 358.513 531.2 358.2L530.3 357.2C529.987 356.879 529.812 356.448 529.812 356C529.812 355.552 529.987 355.121 530.3 354.8L531.3 353.9C531.621 353.587 532.052 353.412 532.5 353.412C532.948 353.412 533.379 353.587 533.7 353.9Z" fill="#F8AB5D"/>
<path d="M533.9 338.3L534.8 339.3C535.113 339.621 535.288 340.052 535.288 340.5C535.288 340.948 535.113 341.379 534.8 341.7L533.8 342.6C533.479 342.913 533.048 343.088 532.6 343.088C532.152 343.088 531.721 342.913 531.4 342.6L530.5 341.6C530.187 341.279 530.012 340.848 530.012 340.4C530.012 339.952 530.187 339.521 530.5 339.2L531.5 338.3C531.653 338.134 531.838 338.001 532.045 337.911C532.251 337.82 532.474 337.773 532.7 337.773C532.926 337.773 533.149 337.82 533.355 337.911C533.562 338.001 533.747 338.134 533.9 338.3Z" fill="#F8AB5D"/>
<path d="M534.2 322.6L535.1 323.6C535.413 323.921 535.588 324.352 535.588 324.8C535.588 325.248 535.413 325.679 535.1 326L534.1 326.9C533.779 327.213 533.348 327.388 532.9 327.388C532.452 327.388 532.021 327.213 531.7 326.9L530.8 325.9C530.487 325.579 530.312 325.148 530.312 324.7C530.312 324.252 530.487 323.821 530.8 323.5L531.8 322.6C531.953 322.434 532.138 322.301 532.345 322.211C532.551 322.12 532.774 322.073 533 322.073C533.226 322.073 533.449 322.12 533.655 322.211C533.862 322.301 534.047 322.434 534.2 322.6Z" fill="#F8AB5D"/>
<path d="M547.6 369.8L548.5 370.8C548.813 371.121 548.988 371.552 548.988 372C548.988 372.448 548.813 372.879 548.5 373.2L547.5 374.1C547.179 374.413 546.748 374.588 546.3 374.588C545.852 374.588 545.421 374.413 545.1 374.1L544.2 373.1C543.887 372.779 543.712 372.348 543.712 371.9C543.712 371.452 543.887 371.021 544.2 370.7L545.2 369.8C545.521 369.487 545.952 369.312 546.4 369.312C546.848 369.312 547.279 369.487 547.6 369.8Z" fill="#F8AB5D"/>
<path d="M547.8 354.2L548.7 355.2C549.013 355.521 549.188 355.952 549.188 356.4C549.188 356.848 549.013 357.279 548.7 357.6L547.7 358.5C547.379 358.813 546.948 358.988 546.5 358.988C546.052 358.988 545.621 358.813 545.3 358.5L544.4 357.5C544.087 357.179 543.912 356.748 543.912 356.3C543.912 355.852 544.087 355.421 544.4 355.1L545.4 354.2C545.553 354.034 545.738 353.901 545.945 353.811C546.151 353.72 546.374 353.673 546.6 353.673C546.826 353.673 547.049 353.72 547.255 353.811C547.462 353.901 547.647 354.034 547.8 354.2Z" fill="#F8AB5D"/>
<path d="M548.1 338.5L549 339.5C549.313 339.821 549.488 340.252 549.488 340.7C549.488 341.148 549.313 341.579 549 341.9L548 342.8C547.679 343.113 547.248 343.288 546.8 343.288C546.352 343.288 545.921 343.113 545.6 342.8L544.7 341.8C544.387 341.479 544.212 341.048 544.212 340.6C544.212 340.152 544.387 339.721 544.7 339.4L545.7 338.5C545.853 338.334 546.038 338.201 546.245 338.111C546.451 338.02 546.674 337.973 546.9 337.973C547.126 337.973 547.349 338.02 547.555 338.111C547.762 338.201 547.947 338.334 548.1 338.5Z" fill="#F8AB5D"/>
<path d="M548.3 322.8L549.2 323.8C549.513 324.121 549.688 324.552 549.688 325C549.688 325.448 549.513 325.879 549.2 326.2L548.2 327.1C547.879 327.413 547.448 327.588 547 327.588C546.552 327.588 546.121 327.413 545.8 327.1L544.9 326.1C544.587 325.779 544.412 325.348 544.412 324.9C544.412 324.452 544.587 324.021 544.9 323.7L545.9 322.8C546.053 322.634 546.238 322.501 546.445 322.411C546.651 322.32 546.874 322.273 547.1 322.273C547.326 322.273 547.549 322.32 547.755 322.411C547.962 322.501 548.147 322.634 548.3 322.8Z" fill="#F8AB5D"/>
<path d="M561.7 370.1L562.6 371.1C562.913 371.421 563.088 371.852 563.088 372.3C563.088 372.748 562.913 373.179 562.6 373.5L561.6 374.4C561.279 374.713 560.848 374.888 560.4 374.888C559.952 374.888 559.521 374.713 559.2 374.4L558.3 373.4C557.987 373.079 557.812 372.648 557.812 372.2C557.812 371.752 557.987 371.321 558.3 371L559.3 370.1C559.453 369.934 559.638 369.801 559.845 369.711C560.051 369.62 560.274 369.573 560.5 369.573C560.726 369.573 560.949 369.62 561.155 369.711C561.362 369.801 561.547 369.934 561.7 370.1Z" fill="#F8AB5D"/>
<path d="M561.9 354.4L562.8 355.4C563.113 355.721 563.288 356.152 563.288 356.6C563.288 357.048 563.113 357.479 562.8 357.8L561.8 358.7C561.479 359.013 561.048 359.188 560.6 359.188C560.152 359.188 559.721 359.013 559.4 358.7L558.5 357.7C558.187 357.379 558.012 356.948 558.012 356.5C558.012 356.052 558.187 355.621 558.5 355.3L559.5 354.4C559.653 354.234 559.838 354.101 560.045 354.011C560.251 353.92 560.474 353.873 560.7 353.873C560.926 353.873 561.149 353.92 561.355 354.011C561.562 354.101 561.747 354.234 561.9 354.4Z" fill="#F8AB5D"/>
<path d="M562.2 338.7L563.1 339.7C563.413 340.021 563.588 340.452 563.588 340.9C563.588 341.348 563.413 341.779 563.1 342.1L562.1 343C561.779 343.313 561.348 343.488 560.9 343.488C560.452 343.488 560.021 343.313 559.7 343L558.8 342C558.487 341.679 558.312 341.248 558.312 340.8C558.312 340.352 558.487 339.921 558.8 339.6L559.8 338.7C559.953 338.534 560.138 338.401 560.345 338.311C560.551 338.22 560.774 338.173 561 338.173C561.226 338.173 561.449 338.22 561.655 338.311C561.862 338.401 562.047 338.534 562.2 338.7Z" fill="#F8AB5D"/>
<path d="M562.4 323L563.3 324C563.613 324.321 563.788 324.752 563.788 325.2C563.788 325.648 563.613 326.079 563.3 326.4L562.3 327.3C561.979 327.613 561.548 327.788 561.1 327.788C560.652 327.788 560.221 327.613 559.9 327.3L559 326.3C558.687 325.979 558.512 325.548 558.512 325.1C558.512 324.652 558.687 324.221 559 323.9L560 323C560.153 322.834 560.338 322.701 560.545 322.611C560.751 322.52 560.974 322.473 561.2 322.473C561.426 322.473 561.649 322.52 561.855 322.611C562.062 322.701 562.247 322.834 562.4 323Z" fill="#F8AB5D"/>
<path d="M477.9 306L478.8 307C479.113 307.321 479.288 307.752 479.288 308.2C479.288 308.648 479.113 309.079 478.8 309.4L477.8 310.3C477.479 310.613 477.048 310.788 476.6 310.788C476.152 310.788 475.721 310.613 475.4 310.3L474.5 309.3C474.187 308.979 474.012 308.548 474.012 308.1C474.012 307.652 474.187 307.221 474.5 306.9L475.5 306C475.821 305.687 476.252 305.512 476.7 305.512C477.148 305.512 477.579 305.687 477.9 306Z" fill="#F8AB5D"/>
<path d="M478.1 290.3L479 291.3C479.313 291.621 479.488 292.052 479.488 292.5C479.488 292.948 479.313 293.379 479 293.7L478 294.6C477.679 294.913 477.248 295.088 476.8 295.088C476.352 295.088 475.921 294.913 475.6 294.6L474.7 293.6C474.387 293.279 474.212 292.848 474.212 292.4C474.212 291.952 474.387 291.521 474.7 291.2L475.7 290.3C476.021 289.987 476.452 289.812 476.9 289.812C477.348 289.812 477.779 289.987 478.1 290.3Z" fill="#F8AB5D"/>
<path d="M478.4 274.7L479.3 275.7C479.613 276.021 479.788 276.452 479.788 276.9C479.788 277.348 479.613 277.779 479.3 278.1L478.3 279C477.979 279.313 477.548 279.488 477.1 279.488C476.652 279.488 476.221 279.313 475.9 279L475 278C474.687 277.679 474.512 277.248 474.512 276.8C474.512 276.352 474.687 275.921 475 275.6L476 274.7C476.153 274.534 476.338 274.401 476.545 274.311C476.751 274.22 476.974 274.173 477.2 274.173C477.426 274.173 477.649 274.22 477.855 274.311C478.062 274.401 478.247 274.534 478.4 274.7Z" fill="#F8AB5D"/>
<path d="M492 306.2L492.9 307.2C493.213 307.521 493.388 307.952 493.388 308.4C493.388 308.848 493.213 309.279 492.9 309.6L491.9 310.5C491.579 310.813 491.148 310.988 490.7 310.988C490.252 310.988 489.821 310.813 489.5 310.5L488.6 309.5C488.287 309.179 488.112 308.748 488.112 308.3C488.112 307.852 488.287 307.421 488.6 307.1L489.6 306.2C489.921 305.887 490.352 305.712 490.8 305.712C491.248 305.712 491.679 305.887 492 306.2Z" fill="#F8AB5D"/>
<path d="M492.3 290.6L493.2 291.6C493.513 291.921 493.688 292.352 493.688 292.8C493.688 293.248 493.513 293.679 493.2 294L492.2 294.9C491.879 295.213 491.448 295.388 491 295.388C490.552 295.388 490.121 295.213 489.8 294.9L488.9 293.9C488.587 293.579 488.412 293.148 488.412 292.7C488.412 292.252 488.587 291.821 488.9 291.5L489.9 290.6C490.053 290.434 490.238 290.301 490.445 290.211C490.651 290.12 490.874 290.073 491.1 290.073C491.326 290.073 491.549 290.12 491.755 290.211C491.962 290.301 492.147 290.434 492.3 290.6Z" fill="#F8AB5D"/>
<path d="M492.5 274.9L493.4 275.9C493.713 276.221 493.888 276.652 493.888 277.1C493.888 277.548 493.713 277.979 493.4 278.3L492.4 279.2C492.079 279.513 491.648 279.688 491.2 279.688C490.752 279.688 490.321 279.513 490 279.2L489.1 278.2C488.787 277.879 488.612 277.448 488.612 277C488.612 276.552 488.787 276.121 489.1 275.8L490.1 274.9C490.253 274.734 490.438 274.601 490.645 274.511C490.851 274.42 491.074 274.373 491.3 274.373C491.526 274.373 491.749 274.42 491.955 274.511C492.162 274.601 492.347 274.734 492.5 274.9Z" fill="#F8AB5D"/>
<path d="M506.1 306.5L507 307.5C507.313 307.821 507.488 308.252 507.488 308.7C507.488 309.148 507.313 309.579 507 309.9L506 310.8C505.679 311.113 505.248 311.288 504.8 311.288C504.352 311.288 503.921 311.113 503.6 310.8L502.7 309.8C502.387 309.479 502.212 309.048 502.212 308.6C502.212 308.152 502.387 307.721 502.7 307.4L503.7 306.5C503.853 306.334 504.038 306.201 504.245 306.111C504.451 306.02 504.674 305.973 504.9 305.973C505.126 305.973 505.349 306.02 505.555 306.111C505.762 306.201 505.947 306.334 506.1 306.5Z" fill="#F8AB5D"/>
<path d="M506.4 290.8L507.3 291.8C507.613 292.121 507.788 292.552 507.788 293C507.788 293.448 507.613 293.879 507.3 294.2L506.3 295.1C505.979 295.413 505.548 295.588 505.1 295.588C504.652 295.588 504.221 295.413 503.9 295.1L503 294.1C502.687 293.779 502.512 293.348 502.512 292.9C502.512 292.452 502.687 292.021 503 291.7L504 290.8C504.153 290.634 504.338 290.501 504.545 290.411C504.751 290.32 504.974 290.273 505.2 290.273C505.426 290.273 505.649 290.32 505.855 290.411C506.062 290.501 506.247 290.634 506.4 290.8Z" fill="#F8AB5D"/>
<path d="M506.6 275.1L507.5 276.1C507.813 276.421 507.988 276.852 507.988 277.3C507.988 277.748 507.813 278.179 507.5 278.5L506.5 279.4C506.179 279.713 505.748 279.888 505.3 279.888C504.852 279.888 504.421 279.713 504.1 279.4L503.2 278.4C502.887 278.079 502.712 277.648 502.712 277.2C502.712 276.752 502.887 276.321 503.2 276L504.2 275.1C504.353 274.934 504.538 274.801 504.745 274.711C504.951 274.62 505.174 274.573 505.4 274.573C505.626 274.573 505.849 274.62 506.055 274.711C506.262 274.801 506.447 274.934 506.6 275.1Z" fill="#F8AB5D"/>
<path d="M520.3 306.7L521.2 307.7C521.513 308.021 521.688 308.452 521.688 308.9C521.688 309.348 521.513 309.779 521.2 310.1L520.2 311C519.879 311.313 519.448 311.488 519 311.488C518.552 311.488 518.121 311.313 517.8 311L516.9 310C516.587 309.679 516.412 309.248 516.412 308.8C516.412 308.352 516.587 307.921 516.9 307.6L517.9 306.7C518.053 306.534 518.238 306.401 518.445 306.311C518.651 306.22 518.874 306.173 519.1 306.173C519.326 306.173 519.549 306.22 519.755 306.311C519.962 306.401 520.147 306.534 520.3 306.7Z" fill="#F8AB5D"/>
<path d="M520.5 291L521.4 292C521.713 292.321 521.888 292.752 521.888 293.2C521.888 293.648 521.713 294.079 521.4 294.4L520.4 295.3C520.079 295.613 519.648 295.788 519.2 295.788C518.752 295.788 518.321 295.613 518 295.3L517.1 294.3C516.787 293.979 516.612 293.548 516.612 293.1C516.612 292.652 516.787 292.221 517.1 291.9L518.1 291C518.253 290.834 518.438 290.701 518.645 290.611C518.851 290.52 519.074 290.473 519.3 290.473C519.526 290.473 519.749 290.52 519.955 290.611C520.162 290.701 520.347 290.834 520.5 291Z" fill="#F8AB5D"/>
<path d="M520.7 275.3L521.6 276.3C521.913 276.621 522.088 277.052 522.088 277.5C522.088 277.948 521.913 278.379 521.6 278.7L520.6 279.6C520.279 279.913 519.848 280.088 519.4 280.088C518.952 280.088 518.521 279.913 518.2 279.6L517.3 278.6C516.987 278.279 516.812 277.848 516.812 277.4C516.812 276.952 516.987 276.521 517.3 276.2L518.3 275.3C518.453 275.134 518.638 275.001 518.845 274.911C519.051 274.82 519.274 274.773 519.5 274.773C519.726 274.773 519.949 274.82 520.155 274.911C520.362 275.001 520.547 275.134 520.7 275.3Z" fill="#F8AB5D"/>
<path d="M534.4 306.9L535.3 307.9C535.613 308.221 535.788 308.652 535.788 309.1C535.788 309.548 535.613 309.979 535.3 310.3L534.3 311.2C533.979 311.513 533.548 311.688 533.1 311.688C532.652 311.688 532.221 311.513 531.9 311.2L531 310.2C530.687 309.879 530.512 309.448 530.512 309C530.512 308.552 530.687 308.121 531 307.8L532 306.9C532.153 306.734 532.338 306.601 532.545 306.511C532.751 306.42 532.974 306.373 533.2 306.373C533.426 306.373 533.649 306.42 533.855 306.511C534.062 306.601 534.247 306.734 534.4 306.9Z" fill="#F8AB5D"/>
<path d="M534.6 291.2L535.5 292.2C535.813 292.521 535.988 292.952 535.988 293.4C535.988 293.848 535.813 294.279 535.5 294.6L534.5 295.5C534.179 295.813 533.748 295.988 533.3 295.988C532.852 295.988 532.421 295.813 532.1 295.5L531.2 294.5C530.887 294.179 530.712 293.748 530.712 293.3C530.712 292.852 530.887 292.421 531.2 292.1L532.2 291.2C532.353 291.034 532.538 290.901 532.745 290.811C532.951 290.72 533.174 290.673 533.4 290.673C533.626 290.673 533.849 290.72 534.055 290.811C534.262 290.901 534.447 291.034 534.6 291.2Z" fill="#F8AB5D"/>
<path d="M534.9 275.5L535.8 276.5C536.113 276.821 536.288 277.252 536.288 277.7C536.288 278.148 536.113 278.579 535.8 278.9L534.8 279.8C534.479 280.113 534.048 280.288 533.6 280.288C533.152 280.288 532.721 280.113 532.4 279.8L531.5 278.8C531.187 278.479 531.012 278.048 531.012 277.6C531.012 277.152 531.187 276.721 531.5 276.4L532.5 275.5C532.653 275.334 532.838 275.201 533.045 275.111C533.251 275.02 533.474 274.973 533.7 274.973C533.926 274.973 534.149 275.02 534.355 275.111C534.562 275.201 534.747 275.334 534.9 275.5Z" fill="#F8AB5D"/>
<path d="M548.5 307.1L549.4 308.1C549.713 308.421 549.888 308.852 549.888 309.3C549.888 309.748 549.713 310.179 549.4 310.5L548.4 311.4C548.079 311.713 547.648 311.888 547.2 311.888C546.752 311.888 546.321 311.713 546 311.4L545.1 310.4C544.787 310.079 544.612 309.648 544.612 309.2C544.612 308.752 544.787 308.321 545.1 308L546.1 307.1C546.253 306.934 546.438 306.801 546.645 306.711C546.851 306.62 547.074 306.573 547.3 306.573C547.526 306.573 547.749 306.62 547.955 306.711C548.162 306.801 548.347 306.934 548.5 307.1Z" fill="#F8AB5D"/>
<path d="M548.8 291.4L549.7 292.4C550.013 292.721 550.188 293.152 550.188 293.6C550.188 294.048 550.013 294.479 549.7 294.8L548.7 295.7C548.379 296.013 547.948 296.188 547.5 296.188C547.052 296.188 546.621 296.013 546.3 295.7L545.4 294.7C545.087 294.379 544.912 293.948 544.912 293.5C544.912 293.052 545.087 292.621 545.4 292.3L546.4 291.4C546.553 291.234 546.738 291.101 546.945 291.011C547.151 290.92 547.374 290.873 547.6 290.873C547.826 290.873 548.049 290.92 548.255 291.011C548.462 291.101 548.647 291.234 548.8 291.4Z" fill="#F8AB5D"/>
<path d="M549 275.7L549.9 276.7C550.213 277.021 550.388 277.452 550.388 277.9C550.388 278.348 550.213 278.779 549.9 279.1L548.9 280C548.579 280.313 548.148 280.488 547.7 280.488C547.252 280.488 546.821 280.313 546.5 280L545.6 279C545.287 278.679 545.112 278.248 545.112 277.8C545.112 277.352 545.287 276.921 545.6 276.6L546.6 275.7C546.753 275.534 546.938 275.401 547.145 275.311C547.351 275.22 547.574 275.173 547.8 275.173C548.026 275.173 548.249 275.22 548.455 275.311C548.662 275.401 548.847 275.534 549 275.7Z" fill="#F8AB5D"/>
<path d="M562.6 307.3L563.5 308.3C563.813 308.621 563.988 309.052 563.988 309.5C563.988 309.948 563.813 310.379 563.5 310.7L562.5 311.6C562.179 311.913 561.748 312.088 561.3 312.088C560.852 312.088 560.421 311.913 560.1 311.6L559.2 310.6C558.887 310.279 558.712 309.848 558.712 309.4C558.712 308.952 558.887 308.521 559.2 308.2L560.2 307.3C560.353 307.134 560.538 307.001 560.745 306.911C560.951 306.82 561.174 306.773 561.4 306.773C561.626 306.773 561.849 306.82 562.055 306.911C562.262 307.001 562.447 307.134 562.6 307.3Z" fill="#F8AB5D"/>
<path d="M562.9 291.6L563.8 292.6C564.113 292.921 564.288 293.352 564.288 293.8C564.288 294.248 564.113 294.679 563.8 295L562.8 295.9C562.479 296.213 562.048 296.388 561.6 296.388C561.152 296.388 560.721 296.213 560.4 295.9L559.5 294.9C559.187 294.579 559.012 294.148 559.012 293.7C559.012 293.252 559.187 292.821 559.5 292.5L560.5 291.6C560.653 291.434 560.838 291.301 561.045 291.211C561.251 291.12 561.474 291.073 561.7 291.073C561.926 291.073 562.149 291.12 562.355 291.211C562.562 291.301 562.747 291.434 562.9 291.6Z" fill="#F8AB5D"/>
<path d="M563.1 275.9L564 276.9C564.313 277.221 564.488 277.652 564.488 278.1C564.488 278.548 564.313 278.979 564 279.3L563 280.2C562.679 280.513 562.248 280.688 561.8 280.688C561.352 280.688 560.921 280.513 560.6 280.2L559.7 279.2C559.387 278.879 559.212 278.448 559.212 278C559.212 277.552 559.387 277.121 559.7 276.8L560.7 275.9C561.021 275.587 561.452 275.412 561.9 275.412C562.348 275.412 562.779 275.587 563.1 275.9Z" fill="#F8AB5D"/>
</g>
<path d="M502.8 279.3C502.8 279.3 502.6 291.1 515.7 291.9C528.8 292.7 539 279.2 537 270.1C535 261 502.8 266 502.8 279.3Z" fill="#F4C2C9"/>
<path d="M530 276.2C523.7 283.4 511.3 287.2 503.1 282C503.619 284.479 504.874 286.744 506.7 288.5C516.6 291.9 526.1 285.6 530 276.2Z" fill="#E26E85"/>
<path d="M493.5 239.8C494.177 246.182 494.177 252.618 493.5 259C492.4 270.1 499.7 283.7 511.6 285.5C524.4 287.5 536.6 280.4 540.2 258.4C543.8 236.4 538.9 222.7 522.5 221.4C506.1 220.1 493.4 222.1 493.5 239.8Z" fill="#F4C2C9"/>
<path d="M547 242.1C546.653 245.891 545.708 249.604 544.2 253.1C542.3 257.2 540.3 258.5 540.3 258.5L528.3 251.9C528.3 251.9 494.5 259.8 493.6 239.8C493.493 237.595 493.594 235.386 493.9 233.2C494.463 228.698 496.263 224.441 499.1 220.9C499.514 220.353 499.983 219.851 500.5 219.4C506.5 213.5 515.7 211 526.5 212.7C545.7 215.6 548.4 229.1 547 242.1Z" fill="#F4C2C9"/>
<path d="M514 221.2C501.9 221.4 492.6 224.7 493.5 239.8C493.5 239.8 493.6 240.9 493.8 242.8C496.2 239.2 501.5 239.4 504.6 236.6C509.327 232.628 512.628 227.22 514 221.2Z" fill="#E26E85"/>
<path d="M548.7 235.5C548.711 233.984 548.219 232.506 547.3 231.3C547.619 230.47 547.789 229.589 547.8 228.7C547.799 227.441 547.465 226.205 546.833 225.116C546.201 224.027 545.293 223.125 544.2 222.5C544.068 220.742 543.289 219.095 542.015 217.877C540.742 216.658 539.062 215.954 537.3 215.9C536.423 214.335 534.996 213.152 533.297 212.579C531.597 212.007 529.745 212.085 528.1 212.8C527.434 212.018 526.606 211.389 525.674 210.958C524.742 210.526 523.727 210.302 522.7 210.3C521.109 210.306 519.564 210.833 518.3 211.8C517.137 211.046 515.786 210.63 514.4 210.6C513.239 210.6 512.095 210.882 511.067 211.422C510.039 211.962 509.158 212.744 508.5 213.7C507.941 213.578 507.372 213.511 506.8 213.5C505.281 213.498 503.801 213.982 502.578 214.882C501.354 215.782 500.451 217.05 500 218.5C498.305 218.764 496.759 219.624 495.641 220.925C494.523 222.227 493.906 223.884 493.9 225.6C493.878 225.937 493.912 226.274 494 226.6C492.7 229.2 492.9 233.3 493.8 233.1C497.247 232.252 500.88 232.604 504.1 234.1C509.9 237 512.5 236.3 518.8 234.1C525.8 231.7 536.8 230.3 538.4 242.7C538.8 245.9 535.2 253 540.2 255.2C541.5 255.8 542.9 254.8 544.2 252.9C544.66 251.971 545.028 251 545.3 250C546.348 249.366 547.212 248.47 547.808 247.401C548.405 246.331 548.712 245.124 548.7 243.9C548.711 242.384 548.219 240.906 547.3 239.7C548.233 238.501 548.728 237.019 548.7 235.5Z" fill="#22272E"/>
<path d="M538.7 256.2C538.7 256.2 541.2 250.5 544.3 252.2C546.9 253.6 544.6 266.7 537.6 266.8" fill="#F4C2C9"/>
<path d="M510.1 252.2C510.621 253.639 510.793 255.182 510.6 256.7C510.53 257.484 510.362 258.257 510.1 259C509.8 259.7 509.6 260.3 509.3 261C509.094 261.547 508.959 262.118 508.9 262.7C508.965 263.233 509.212 263.728 509.6 264.1C510.054 264.592 510.614 264.974 511.238 265.216C511.862 265.459 512.533 265.556 513.2 265.5C512.502 265.894 511.705 266.076 510.905 266.022C510.106 265.969 509.339 265.683 508.7 265.2C508.317 264.938 507.994 264.597 507.752 264.201C507.511 263.804 507.357 263.361 507.3 262.9C507.261 262.048 507.398 261.197 507.7 260.4C508 259.7 508.3 259 508.6 258.4C508.893 257.79 509.127 257.154 509.3 256.5C509.6 255.1 509.8 253.7 510.1 252.2Z" fill="#22272E"/>
<path d="M511.7 272.2C513.107 271.797 514.595 271.769 516.017 272.12C517.438 272.471 518.742 273.188 519.8 274.2" stroke="#22272E" stroke-width="1.8" stroke-linecap="round" stroke-linejoin="round"/>
<path d="M498.8 246.2C500.1 245.9 501.3 244.9 504 244.8C505.8 244.7 506.9 244.8 507.1 243.5C507.3 242.5 506.1 241.2 504.1 241.2C500.2 241.2 495.2 247.1 498.8 246.2Z" fill="#22272E"/>
<path d="M529.8 247.6C528.5 247.2 527.5 246.1 524.8 245.7C523 245.4 521.9 245.4 521.9 244.1C521.8 243 523.1 241.9 525.1 242.1C528.8 242.5 533.3 248.8 529.8 247.6Z" fill="#22272E"/>
<path d="M504 256.1C504.443 256.096 504.869 255.932 505.2 255.638C505.531 255.344 505.744 254.939 505.8 254.5V253.5C505.796 253.057 505.632 252.631 505.338 252.3C505.044 251.969 504.639 251.756 504.2 251.7C503.757 251.704 503.331 251.868 503 252.162C502.669 252.456 502.456 252.861 502.4 253.3V254.3C502.376 254.525 502.4 254.753 502.469 254.969C502.539 255.185 502.652 255.384 502.803 255.553C502.953 255.722 503.138 255.859 503.344 255.953C503.55 256.047 503.773 256.097 504 256.1Z" fill="#22272E"/>
<path d="M523.6 256.9C524.043 256.896 524.469 256.732 524.8 256.438C525.131 256.144 525.344 255.739 525.4 255.3V254.3C525.396 253.857 525.232 253.431 524.938 253.1C524.644 252.769 524.239 252.556 523.8 252.5C523.357 252.504 522.931 252.668 522.6 252.962C522.269 253.256 522.056 253.661 522 254.1V255.1C521.984 255.324 522.013 255.549 522.085 255.761C522.157 255.974 522.271 256.17 522.42 256.338C522.569 256.506 522.75 256.642 522.953 256.738C523.156 256.835 523.376 256.89 523.6 256.9Z" fill="#22272E"/>
<path d="M543 257.1C542.6 257 542.2 257 542.1 257.2C541.961 257.406 541.891 257.651 541.9 257.9C541.812 258.226 541.778 258.563 541.8 258.9C541.8 259.3 541.7 259.6 541.7 260C541.592 260.799 541.355 261.576 541 262.3C540.877 262.539 540.708 262.75 540.502 262.922C540.295 263.094 540.057 263.222 539.8 263.3C539.345 263.357 538.884 263.251 538.5 263C538.9 262.8 539.3 262.7 539.4 262.5C539.484 262.406 539.545 262.294 539.58 262.173C539.614 262.052 539.621 261.924 539.6 261.8C539.7 261.2 539.7 260.5 539.8 259.7C539.9 259.3 539.9 258.9 540 258.6C540.079 258.169 540.25 257.76 540.5 257.4C540.624 257.153 540.808 256.941 541.035 256.784C541.262 256.627 541.525 256.529 541.8 256.5C541.918 256.458 542.043 256.44 542.168 256.448C542.294 256.455 542.416 256.488 542.528 256.544C542.64 256.6 542.74 256.678 542.821 256.774C542.902 256.869 542.963 256.98 543 257.1Z" fill="#22272E"/>
<path d="M482.9 257.7C482.9 257.7 478.4 261.5 470.4 275.9C464 287.5 458.5 304.8 450.7 314.5C449.084 316.686 447.043 318.522 444.7 319.9C443.167 320.771 441.561 321.508 439.9 322.1C428.1 326 411.4 323 415.9 305.3C420.4 287.6 450.7 266.1 460.6 250.5C470.5 234.9 483.2 251.9 482.9 257.7Z" fill="#F4C2C9"/>
<path d="M450.7 314.5C449.084 316.686 447.043 318.522 444.7 319.9C443.167 320.771 441.561 321.508 439.9 322.1" stroke="#E26E85" stroke-width="1.8" stroke-linecap="round" stroke-linejoin="round"/>
<path d="M483.9 226.6C483.9 226.6 489.3 224 491.2 223.1C493.1 222.2 497.5 221.3 499.1 220.8C500.7 220.3 500.9 222.9 498.2 225.3C495.5 227.7 490.7 234.2 487.4 234.9C484.1 235.6 482.3 228.6 483.9 226.6Z" fill="#E26E85"/>
<path d="M459.7 252.2C459.7 252.2 465.6 242.5 467.3 238.9C471.5 230.2 477.6 226.6 479.6 225C481.6 223.4 494.3 220.8 497.5 219.6C500.5 218.5 500.1 221 498.9 222.1C495.6 225.1 489 226.3 488.2 227.2C488.2 227.2 492.9 225.8 495.3 224.8C498.669 223.671 502.11 222.769 505.6 222.1C507.2 221.8 508.2 223.6 505.6 225.3C503 227 498.3 229.1 497.7 229.5C497.1 229.9 492.4 232.8 492.4 232.8C492.4 232.8 497.1 232.8 498.8 232.7C500.5 232.6 504.1 232.8 505 232.8C507.4 232.8 507.8 235.8 502.9 236.6C498 237.4 494.9 238.7 492.3 240.8C489.3 243.2 493.3 250 481.2 259.3C481.3 259.3 462.6 264.9 459.7 252.2Z" fill="#F4C2C9"/>
<path d="M492.4 232.8C491.781 232.939 491.178 233.14 490.6 233.4C489.543 233.967 488.568 234.673 487.7 235.5" stroke="#E26E85" stroke-width="1.8" stroke-linecap="round" stroke-linejoin="round"/>
<path d="M488.2 227.2C488.2 227.2 486.5 227.7 485.3 228.2C484.328 228.717 483.449 229.393 482.7 230.2" stroke="#E26E85" stroke-width="1.8" stroke-linecap="round" stroke-linejoin="round"/>
<path d="M461.2 249.4C463.7 249.3 472.3 250.2 476.8 265C476.869 265.184 476.887 265.384 476.852 265.578C476.817 265.771 476.73 265.952 476.6 266.1L472.7 272C472.682 272.023 472.659 272.041 472.633 272.054C472.607 272.067 472.579 272.073 472.55 272.073C472.521 272.073 472.492 272.067 472.466 272.054C472.44 272.041 472.418 272.023 472.4 272C471.7 269.8 467.3 256.5 457 255.6C456.91 255.594 456.823 255.564 456.748 255.514C456.673 255.463 456.613 255.395 456.572 255.314C456.532 255.233 456.513 255.143 456.518 255.053C456.523 254.963 456.551 254.876 456.6 254.8C457.5 253.5 459.3 251 460.1 250C460.223 249.82 460.387 249.672 460.578 249.568C460.769 249.464 460.982 249.406 461.2 249.4Z" fill="#22272E"/>
<path d="M469.605 257.123C471.013 254.684 470.293 251.632 467.998 250.307C465.702 248.981 462.699 249.884 461.291 252.323C459.882 254.763 460.602 257.815 462.898 259.14C465.193 260.466 468.196 259.563 469.605 257.123Z" fill="white"/>
<path d="M578.4 336.6C578.4 336.6 583.2 335.3 592.1 324.8C601 314.3 585.1 324.4 584.2 324.8C583.3 325.2 578.4 336.6 578.4 336.6Z" fill="#22272E"/>
<path d="M623.3 337.8C620.5 330 611 316.6 600.7 304.1C592 312.1 583 319.9 575 328.3C580.4 333.1 585.2 337.3 585.2 337.3C583.8 338 581.2 339.4 578.5 340.7C583.2 348.4 586.6 357.2 587.2 366C596.5 366.2 607 366.4 611.9 364.4C620.7 360.9 628.6 352.5 623.3 337.8Z" fill="#F4C2C9"/>
<path d="M569.6 345.1C569.6 345.1 567.9 342.7 567.1 341.8C566.3 340.9 561.7 337.8 559.8 336.2C557.9 334.6 556.3 336.9 558 339.7C559.7 342.5 560.7 347.3 562 348.6C563.3 349.9 569.8 348.7 569.6 345.1Z" fill="#F4C2C9"/>
<path d="M604.4 308.6C604.4 308.6 588.4 320.2 578.4 336.7C578.4 336.7 561.4 320.3 558.3 314.7C555.2 309.1 555.5 293.3 562.7 284.3C569.9 275.3 576.2 278 576.2 278C586.663 287.167 596.116 297.425 604.4 308.6Z" fill="#4151DF"/>
<path d="M573.9 332.2C573.9 332.2 584.5 313.3 600.5 303.5" stroke="#22272E" stroke-width="1.8" stroke-linecap="round" stroke-linejoin="round"/>
<path d="M585.1 337.3C585.1 337.3 595.6 330.6 604.3 332.3" stroke="#E26E85" stroke-width="1.8" stroke-linecap="round" stroke-linejoin="round"/>
<path d="M518.8 319.8L563.6 312.7C564.068 312.626 564.546 312.663 564.997 312.806C565.449 312.949 565.86 313.195 566.2 313.525C566.539 313.855 566.798 314.259 566.954 314.706C567.11 315.153 567.16 315.63 567.1 316.1L559.7 366.6C559.6 367.195 559.33 367.748 558.922 368.192C558.513 368.636 557.985 368.951 557.4 369.1L513.5 379.8C513.035 379.914 512.549 379.915 512.084 379.803C511.618 379.69 511.186 379.468 510.824 379.155C510.462 378.842 510.18 378.447 510.002 378.002C509.823 377.557 509.754 377.077 509.8 376.6L513.8 325.1C513.893 323.775 514.442 322.523 515.353 321.557C516.265 320.591 517.483 319.97 518.8 319.8Z" fill="#22272E"/>
<path d="M532.2 316.6L531.9 320.3C531.9 320.8 532.4 321.2 533.1 321.1L550.9 317.9C551.248 317.88 551.578 317.739 551.834 317.502C552.089 317.264 552.254 316.946 552.3 316.6L552.5 313.9C552.491 313.771 552.453 313.645 552.39 313.532C552.327 313.419 552.241 313.321 552.136 313.245C552.031 313.168 551.911 313.116 551.784 313.091C551.657 313.066 551.526 313.069 551.4 313.1L533.7 315.3C533.346 315.335 533.012 315.479 532.744 315.712C532.475 315.945 532.285 316.255 532.2 316.6Z" fill="#4151DF"/>
<path d="M569.6 345.1C569.6 345.1 563.6 343.7 562.2 344.1C560.8 344.5 555.9 345.1 552.3 345.9C548.7 346.7 542.2 346.4 539.8 347.3C539.488 347.391 539.199 347.546 538.952 347.756C538.704 347.965 538.503 348.225 538.361 348.517C538.22 348.809 538.141 349.127 538.131 349.452C538.12 349.776 538.178 350.099 538.3 350.4C538.3 350.4 535.8 349.9 535 351.2C533.8 353.1 536.3 354.3 536.3 354.3C534.3 353.7 532.6 355 533.5 356.9C534.2 358.3 537.5 360.4 540.4 361.8C543.177 363.011 546.014 364.079 548.9 365C548.9 365 546.3 364.7 543.2 364.4C540.3 364.2 539 365.6 540.7 367.2C542.4 368.8 552.9 371.8 556.8 370.9C560.7 370 565 367.6 570.8 366.1C573.3 365.5 579.8 365.7 587.1 365.9C586.5 357.1 583.2 348.3 578.4 340.6C574.1 342.9 569.6 345.1 569.6 345.1Z" fill="#F4C2C9"/>
<path d="M536.3 354.4C536.3 354.4 541.4 356.6 545.6 358C549.8 359.4 554.3 359.2 555.5 359.7" stroke="#E26E85" stroke-width="1.8" stroke-linecap="round" stroke-linejoin="round"/>
<path d="M548.9 365C548.9 365 552.7 366.4 554.8 365.7" stroke="#E26E85" stroke-width="1.8" stroke-linecap="round" stroke-linejoin="round"/>
<path d="M538.4 350.4C541.025 351.385 543.737 352.121 546.5 352.6C549.8 353 555.2 353 555.9 353" stroke="#E26E85" stroke-width="1.8" stroke-linecap="round" stroke-linejoin="round"/>
<path d="M518.8 298.2C519.463 298.2 520 297.663 520 297C520 296.337 519.463 295.8 518.8 295.8C518.137 295.8 517.6 296.337 517.6 297C517.6 297.663 518.137 298.2 518.8 298.2Z" fill="#22272E"/>
<path d="M514.4 291.8C514.4 291.8 513.2 294.3 514 305.3" stroke="#22272E" stroke-width="1.8" stroke-linecap="round" stroke-linejoin="round"/>
<path d="M285 410.3L282.5 605.4C282.495 606.392 282.879 607.347 283.572 608.058C284.264 608.769 285.208 609.179 286.2 609.2C287.167 609.208 288.097 608.835 288.79 608.161C289.483 607.486 289.882 606.566 289.9 605.6L298.2 410.3H285Z" fill="#6171FF"/>
<path d="M733.9 410.3L736.4 605.4C736.405 606.392 736.021 607.347 735.328 608.058C734.636 608.769 733.692 609.179 732.7 609.2C731.733 609.208 730.803 608.835 730.11 608.161C729.417 607.486 729.018 606.566 729 605.6L720.7 410.3H733.9Z" fill="#6171FF"/>
<path d="M298.3 410.3H285L284.8 425.2H297.7L298.3 410.3Z" fill="#4151DF"/>
<path d="M733.9 410.3H720.6L721.2 425.2H734.1L733.9 410.3Z" fill="#4151DF"/>
<path d="M341.8 406.7L339.9 552.4C339.89 552.77 339.956 553.139 340.094 553.483C340.231 553.827 340.437 554.139 340.699 554.401C340.961 554.663 341.273 554.869 341.617 555.006C341.961 555.144 342.33 555.21 342.7 555.2C343.423 555.191 344.115 554.906 344.635 554.405C345.155 553.903 345.464 553.222 345.5 552.5L351.7 406.6H341.8V406.7Z" fill="#6171FF"/>
<path d="M677 406.7L678.9 552.4C678.91 552.77 678.844 553.139 678.706 553.483C678.569 553.827 678.363 554.139 678.101 554.401C677.839 554.663 677.527 554.869 677.183 555.006C676.839 555.144 676.47 555.21 676.1 555.2C675.377 555.191 674.685 554.906 674.165 554.405C673.645 553.903 673.336 553.222 673.3 552.5L667.1 406.6H677V406.7Z" fill="#6171FF"/>
<path d="M761.7 406.3H257.2L318.2 369.2H700.7L761.7 406.3Z" fill="white"/>
<path d="M761.7 406.3H257.2V414.3H761.7V406.3Z" fill="#6171FF"/>
<path d="M378.6 371.7L409.6 393.2L416.2 393.3L458.5 374.4L378.6 371.7Z" fill="#63737A"/>
<path d="M416.2 393.3L420.2 393.4C422.2 393.457 424.186 393.046 426 392.2L456.5 377.7C457.13 377.42 457.66 376.953 458.017 376.363C458.375 375.774 458.543 375.088 458.5 374.4H458.4L416.2 393.3Z" fill="#22272E"/>
<path d="M313 389.4L418.5 393.5C419.2 393.523 419.896 393.384 420.534 393.095C421.172 392.806 421.735 392.374 422.18 391.833C422.624 391.292 422.938 390.656 423.098 389.974C423.258 389.292 423.258 388.582 423.1 387.9L408 326C407.554 324.23 406.54 322.655 405.113 321.517C403.686 320.379 401.925 319.741 400.1 319.7L295 318.1C294.484 318.095 293.974 318.208 293.508 318.432C293.043 318.655 292.635 318.982 292.316 319.388C291.997 319.794 291.776 320.267 291.669 320.772C291.562 321.277 291.573 321.8 291.7 322.3L308.7 385.9C308.931 386.876 309.478 387.748 310.255 388.381C311.033 389.013 311.998 389.372 313 389.4Z" fill="#22272E"/>
<path d="M358.548 360.3C360.679 357.55 359.753 353.263 356.478 350.726C353.204 348.189 348.822 348.362 346.691 351.113C344.56 353.863 345.487 358.149 348.761 360.686C352.035 363.223 356.417 363.05 358.548 360.3Z" fill="#63737A"/>
<path d="M326.3 276.7L259.5 275.5C258.909 275.479 258.341 275.261 257.888 274.881C257.435 274.5 257.122 273.979 257 273.4L252.5 251.9C252.435 251.579 252.443 251.247 252.525 250.93C252.606 250.612 252.758 250.317 252.97 250.067C253.182 249.817 253.447 249.618 253.747 249.485C254.047 249.352 254.372 249.289 254.7 249.3L321.5 250.5C322.091 250.521 322.659 250.739 323.112 251.119C323.565 251.5 323.878 252.021 324 252.6L328.5 274.1C328.556 274.42 328.54 274.748 328.455 275.062C328.37 275.375 328.217 275.666 328.007 275.914C327.798 276.162 327.536 276.361 327.241 276.497C326.946 276.632 326.625 276.702 326.3 276.7Z" fill="#F4C2C9"/>
<path d="M272.463 261.098C273.48 259.934 273.124 257.959 271.668 256.687C270.212 255.416 268.208 255.329 267.19 256.494C266.173 257.659 266.529 259.634 267.985 260.905C269.441 262.177 271.446 262.263 272.463 261.098Z" fill="#22272E"/>
<path d="M275.2 269.7L268.9 269.6C268.173 269.556 267.479 269.279 266.921 268.811C266.363 268.343 265.97 267.708 265.8 267C265.607 266.328 265.58 265.62 265.72 264.936C265.861 264.251 266.166 263.611 266.608 263.07C267.051 262.53 267.618 262.104 268.261 261.831C268.904 261.557 269.604 261.444 270.3 261.5C271.902 261.608 273.43 262.217 274.668 263.239C275.905 264.262 276.791 265.647 277.2 267.2C277.303 267.502 277.327 267.825 277.272 268.139C277.217 268.453 277.084 268.748 276.884 268.998C276.685 269.247 276.426 269.442 276.132 269.564C275.838 269.687 275.517 269.734 275.2 269.7Z" fill="#22272E"/>
<path d="M301.3 265.2L283.6 264.9C283.407 264.892 283.223 264.818 283.077 264.69C282.932 264.563 282.834 264.39 282.8 264.2L282.3 261.9C282.278 261.781 282.283 261.658 282.313 261.54C282.342 261.423 282.397 261.313 282.473 261.218C282.549 261.124 282.644 261.046 282.752 260.991C282.86 260.936 282.979 260.905 283.1 260.9L300.8 261.2C300.993 261.208 301.178 261.282 301.323 261.41C301.468 261.537 301.566 261.71 301.6 261.9L302.1 264.2C302.122 264.319 302.117 264.442 302.087 264.56C302.058 264.677 302.003 264.787 301.927 264.882C301.851 264.977 301.756 265.054 301.648 265.109C301.54 265.164 301.421 265.195 301.3 265.2Z" fill="#4151DF"/>
<path d="M308.3 259.9L316.7 267" stroke="#22272E" stroke-width="1.8" stroke-linecap="round" stroke-linejoin="round"/>
<path d="M315.3 260L309.7 266.8" stroke="#22272E" stroke-width="1.8" stroke-linecap="round" stroke-linejoin="round"/>
<path d="M394.9 312.3L328.1 311.1C327.509 311.079 326.941 310.861 326.488 310.481C326.035 310.1 325.722 309.579 325.6 309L321.1 287.5C321.035 287.179 321.043 286.847 321.125 286.53C321.206 286.212 321.358 285.917 321.57 285.667C321.782 285.417 322.047 285.218 322.347 285.085C322.647 284.952 322.972 284.889 323.3 284.9L390.1 286.1C390.691 286.121 391.259 286.339 391.712 286.719C392.165 287.1 392.478 287.621 392.6 288.2L397.1 309.7C397.156 310.02 397.14 310.348 397.055 310.662C396.97 310.975 396.817 311.266 396.607 311.514C396.398 311.762 396.136 311.961 395.841 312.097C395.546 312.232 395.225 312.302 394.9 312.3Z" fill="#79B7FF"/>
<path d="M341.045 296.67C342.062 295.505 341.706 293.53 340.25 292.258C338.794 290.987 336.789 290.9 335.772 292.065C334.755 293.23 335.111 295.205 336.567 296.476C338.023 297.748 340.028 297.834 341.045 296.67Z" fill="#22272E"/>
<path d="M343.8 305.3L337.5 305.2C336.773 305.156 336.079 304.879 335.521 304.411C334.963 303.943 334.57 303.308 334.4 302.6C334.207 301.928 334.179 301.22 334.32 300.536C334.461 299.851 334.766 299.211 335.208 298.67C335.651 298.13 336.218 297.704 336.861 297.431C337.504 297.157 338.204 297.044 338.9 297.1C340.502 297.208 342.03 297.817 343.268 298.839C344.505 299.862 345.391 301.247 345.8 302.8C345.902 303.102 345.927 303.425 345.872 303.739C345.817 304.053 345.684 304.349 345.484 304.598C345.285 304.847 345.026 305.042 344.732 305.164C344.438 305.287 344.117 305.334 343.8 305.3Z" fill="#22272E"/>
<path d="M369.8 300.8L352.1 300.5C351.907 300.492 351.723 300.418 351.577 300.29C351.432 300.163 351.334 299.99 351.3 299.8L350.8 297.5C350.778 297.381 350.783 297.258 350.813 297.14C350.842 297.023 350.897 296.913 350.973 296.818C351.049 296.724 351.144 296.646 351.252 296.591C351.36 296.536 351.479 296.505 351.6 296.5L369.3 296.8C369.493 296.808 369.678 296.882 369.823 297.01C369.968 297.137 370.066 297.31 370.1 297.5L370.6 299.8C370.622 299.919 370.617 300.042 370.587 300.16C370.558 300.277 370.503 300.387 370.427 300.482C370.351 300.577 370.256 300.654 370.148 300.709C370.04 300.764 369.921 300.795 369.8 300.8Z" fill="#4151DF"/>
<path d="M376.8 295.5L385.3 302.6" stroke="#22272E" stroke-width="1.8" stroke-linecap="round" stroke-linejoin="round"/>
<path d="M383.8 295.6L378.3 302.4" stroke="#22272E" stroke-width="1.8" stroke-linecap="round" stroke-linejoin="round"/>
<path d="M271.1 275.7L274.8 293.1C275.031 294.229 275.644 295.244 276.537 295.973C277.43 296.702 278.547 297.1 279.7 297.1L283.6 297.2" stroke="#22272E" stroke-width="1.8" stroke-linecap="round" stroke-linejoin="round"/>
<path d="M308 297.7L323.3 298" stroke="#22272E" stroke-width="1.8" stroke-linecap="round" stroke-linejoin="round"/>
<path d="M306.9 291L303.4 294.7C303.226 294.889 302.998 295.019 302.748 295.072C302.497 295.126 302.236 295.101 302 295C301.258 294.658 300.429 294.551 299.624 294.694C298.82 294.837 298.079 295.223 297.5 295.8L293.6 299.9C293.025 300.504 292.657 301.275 292.549 302.102C292.441 302.929 292.599 303.769 293 304.5C293.118 304.725 293.162 304.981 293.126 305.232C293.09 305.484 292.976 305.717 292.8 305.9L289.3 309.6C289.158 309.756 288.976 309.872 288.773 309.933C288.571 309.994 288.356 309.999 288.15 309.948C287.945 309.897 287.758 309.791 287.608 309.641C287.458 309.492 287.352 309.305 287.3 309.1L287 307.7C286.645 306.274 286.661 304.782 287.046 303.364C287.431 301.946 288.173 300.65 289.2 299.6L297 291.4C298.016 290.341 299.278 289.55 300.674 289.096C302.069 288.643 303.556 288.541 305 288.8L306.4 289.1C306.586 289.161 306.753 289.267 306.887 289.409C307.021 289.552 307.117 289.725 307.167 289.914C307.217 290.103 307.218 290.301 307.172 290.491C307.125 290.681 307.032 290.856 306.9 291Z" fill="#22272E"/>
<path d="M474.8 203.8C474.8 203.8 470.4 208.6 464.5 203.8C458.6 199 466.2 189.8 468.6 192.3C471 194.8 458.1 199.7 457.7 193.4C457.3 187.1 464.5 186.7 454.4 178.8" stroke="#4151DF" stroke-width="1.8" stroke-linecap="round" stroke-linejoin="round"/>
<path d="M508.1 194C508.1 194 514.8 191.6 512.4 186.2C510 180.8 503.8 186.2 508.1 186.2C512.4 186.2 515.5 181.6 512.9 175.3" stroke="#4151DF" stroke-width="1.8" stroke-linecap="round" stroke-linejoin="round"/>
<path d="M552.5 204.3C552.5 204.3 560.8 207.3 558.6 201.5C556.4 195.7 556.6 193.7 561.7 196C566.8 198.3 567.1 193.5 568.9 192.4" stroke="#4151DF" stroke-width="1.8" stroke-linecap="round" stroke-linejoin="round"/>
<path d="M596.2 241.3L592.8 244.9C592.558 245.177 592.425 245.532 592.425 245.9C592.425 246.268 592.558 246.623 592.8 246.9C593.048 247.138 593.363 247.295 593.703 247.349C594.043 247.402 594.391 247.351 594.7 247.2L598.6 244.8L596.2 241.3Z" fill="#22272E"/>
<path d="M626.4 250L627.3 254.8C627.369 255.17 627.294 255.553 627.089 255.87C626.885 256.186 626.566 256.412 626.2 256.5C625.868 256.606 625.508 256.582 625.193 256.434C624.877 256.286 624.63 256.023 624.5 255.7L622.5 251.6L626.4 250Z" fill="#22272E"/>
<path d="M615.3 254.2C627.726 254.2 637.8 244.126 637.8 231.7C637.8 219.274 627.726 209.2 615.3 209.2C602.874 209.2 592.8 219.274 592.8 231.7C592.8 244.126 602.874 254.2 615.3 254.2Z" fill="#4151DF"/>
<path d="M615.3 246.2C623.308 246.2 629.8 239.708 629.8 231.7C629.8 223.692 623.308 217.2 615.3 217.2C607.292 217.2 600.8 223.692 600.8 231.7C600.8 239.708 607.292 246.2 615.3 246.2Z" fill="#79B7FF"/>
<path d="M619.4 236.9L615.3 231.7L617.4 224.5" stroke="#63737A" stroke-width="1.8" stroke-linecap="round" stroke-linejoin="round"/>
<path d="M600.9 209.9C600.749 209.957 600.588 209.981 600.428 209.971C600.267 209.96 600.111 209.916 599.969 209.84C599.827 209.764 599.702 209.659 599.604 209.531C599.506 209.404 599.437 209.257 599.4 209.1C599.158 207.622 599.436 206.105 600.185 204.808C600.934 203.511 602.108 202.513 603.51 201.983C604.911 201.453 606.452 201.424 607.872 201.901C609.292 202.378 610.503 203.332 611.3 204.6C611.393 204.739 611.452 204.898 611.471 205.064C611.491 205.23 611.47 205.398 611.412 205.554C611.353 205.711 611.258 205.851 611.134 205.963C611.01 206.076 610.861 206.157 610.7 206.2L600.9 209.9Z" fill="#4151DF"/>
<path d="M639.2 221C639.294 221.134 639.418 221.244 639.561 221.324C639.704 221.403 639.863 221.449 640.026 221.459C640.189 221.468 640.353 221.441 640.504 221.379C640.655 221.317 640.791 221.222 640.9 221.1C641.889 219.978 642.459 218.548 642.513 217.054C642.568 215.559 642.104 214.091 641.2 212.9C640.295 211.703 639.008 210.852 637.553 210.489C636.097 210.125 634.561 210.27 633.2 210.9C633.055 210.979 632.928 211.087 632.828 211.218C632.728 211.349 632.657 211.5 632.619 211.66C632.581 211.821 632.578 211.988 632.609 212.15C632.64 212.311 632.705 212.465 632.8 212.6L639.2 221Z" fill="#4151DF"/>
<path d="M625.5 207.5L619.6 205.8C619.368 205.732 619.151 205.617 618.964 205.464C618.777 205.31 618.623 205.12 618.511 204.905C618.399 204.691 618.331 204.455 618.312 204.214C618.293 203.972 618.323 203.73 618.4 203.5C618.468 203.268 618.583 203.051 618.736 202.864C618.89 202.677 619.08 202.523 619.295 202.411C619.509 202.299 619.745 202.231 619.986 202.212C620.228 202.193 620.47 202.223 620.7 202.3L626.6 204C626.832 204.068 627.049 204.182 627.236 204.336C627.423 204.49 627.577 204.68 627.689 204.895C627.801 205.109 627.869 205.345 627.888 205.586C627.907 205.828 627.877 206.07 627.8 206.3C627.732 206.532 627.617 206.749 627.464 206.936C627.31 207.123 627.12 207.277 626.905 207.389C626.691 207.501 626.455 207.569 626.214 207.588C625.972 207.607 625.73 207.577 625.5 207.5Z" fill="#4151DF"/>
<path d="M620.731 205.03L619.113 210.6L623.338 211.827L624.957 206.258L620.731 205.03Z" fill="#4151DF"/>
<path d="M576 184H544.8L541.6 186.1C541.365 186.25 541.095 186.334 540.816 186.345C540.538 186.355 540.262 186.29 540.017 186.157C539.772 186.025 539.567 185.829 539.423 185.59C539.28 185.351 539.203 185.079 539.2 184.8V162.8C539.205 161.714 539.639 160.674 540.407 159.907C541.174 159.139 542.214 158.705 543.3 158.7H576C577.086 158.705 578.126 159.139 578.893 159.907C579.661 160.674 580.095 161.714 580.1 162.8V180C580.057 181.064 579.608 182.072 578.845 182.815C578.083 183.559 577.065 183.983 576 184Z" fill="#F4C2C9"/>
<path d="M559.3 168.7H570.2" stroke="#22272E" stroke-width="1.8" stroke-linecap="round" stroke-linejoin="round"/>
<path d="M559.3 174.4H565.9" stroke="#22272E" stroke-width="1.8" stroke-linecap="round" stroke-linejoin="round"/>
<path d="M553.6 168.7H548V174.3H553.6V168.7Z" stroke="#22272E" stroke-width="1.8" stroke-linecap="round" stroke-linejoin="round"/>
<path d="M587 380.8C584.706 383.827 581.345 385.866 577.6 386.5C577.04 386.616 576.471 386.683 575.9 386.7C566.7 387.4 560 380.8 560 380.8H587Z" fill="#4151DF"/>
<path d="M634.5 375.1C634.5 375.1 631.5 384.9 621.9 386.6C620.415 386.862 618.902 386.929 617.4 386.8H575.9C576.471 386.783 577.04 386.716 577.6 386.6C581.314 385.886 584.649 383.863 587 380.9C588.369 379.186 589.45 377.261 590.2 375.2H634.5V375.1Z" fill="#22272E"/>
<path d="M752.7 322.1L662.2 316.1C660.797 316.012 659.486 315.375 658.55 314.327C657.614 313.279 657.129 311.904 657.2 310.5L661.8 220.8C661.876 219.116 662.52 217.507 663.628 216.235C664.736 214.964 666.242 214.106 667.9 213.8L760.2 195.9C761.006 195.739 761.839 195.765 762.633 195.977C763.427 196.189 764.162 196.581 764.781 197.122C765.399 197.663 765.885 198.34 766.201 199.099C766.516 199.858 766.653 200.68 766.6 201.5L759.2 316.5C759.067 318.099 758.311 319.582 757.096 320.63C755.88 321.677 754.301 322.205 752.7 322.1Z" fill="#63737A"/>
<path d="M749.7 322L659.2 316C657.797 315.912 656.486 315.275 655.55 314.227C654.614 313.179 654.129 311.804 654.2 310.4L658.8 220.7C658.876 219.016 659.52 217.407 660.628 216.135C661.736 214.864 663.242 214.006 664.9 213.7L757.2 195.8C758.006 195.639 758.839 195.665 759.633 195.877C760.427 196.089 761.162 196.481 761.781 197.022C762.399 197.563 762.885 198.24 763.201 198.999C763.516 199.758 763.653 200.58 763.6 201.4L756.2 316.4C756.05 317.992 755.289 319.465 754.078 320.509C752.866 321.553 751.297 322.087 749.7 322Z" fill="#22272E"/>
<path d="M741.6 239.4L671.4 246.9C671.112 246.929 670.822 246.896 670.548 246.802C670.275 246.709 670.025 246.557 669.816 246.357C669.607 246.157 669.444 245.915 669.337 245.646C669.231 245.377 669.184 245.089 669.2 244.8L670 228.9C670.009 228.442 670.188 228.004 670.502 227.671C670.816 227.338 671.243 227.135 671.7 227.1L742.2 216.1C742.495 216.055 742.797 216.076 743.083 216.162C743.369 216.249 743.632 216.398 743.852 216.6C744.073 216.801 744.246 217.05 744.358 217.326C744.47 217.603 744.518 217.902 744.5 218.2L743.3 237.6C743.291 238.058 743.112 238.496 742.798 238.829C742.484 239.162 742.056 239.365 741.6 239.4Z" fill="#4151DF"/>
<path d="M682.8 225.4L681.7 245.8" stroke="#22272E" stroke-width="1.8" stroke-linecap="round" stroke-linejoin="round"/>
<path d="M673.7 232.4L678.7 240.5" stroke="#22272E" stroke-width="1.8" stroke-linecap="round" stroke-linejoin="round"/>
<path d="M679.2 231.6L673.2 241.2" stroke="#22272E" stroke-width="1.8" stroke-linecap="round" stroke-linejoin="round"/>
<path d="M688.6 231.8L735 225.4" stroke="#22272E" stroke-width="1.8" stroke-linecap="round" stroke-linejoin="round"/>
<path d="M688.3 237.8L713.3 234.6" stroke="#22272E" stroke-width="1.8" stroke-linecap="round" stroke-linejoin="round"/>
<path d="M739.5 271.7L669.9 274.4C669.625 274.413 669.351 274.366 669.096 274.264C668.841 274.161 668.611 274.005 668.421 273.806C668.231 273.607 668.087 273.37 667.997 273.11C667.907 272.85 667.874 272.574 667.9 272.3L668.7 256.5C668.722 256.02 668.915 255.564 669.246 255.215C669.577 254.866 670.022 254.648 670.5 254.6L740.5 248.4C740.782 248.376 741.066 248.413 741.332 248.51C741.597 248.607 741.839 248.761 742.039 248.961C742.239 249.161 742.393 249.403 742.49 249.668C742.587 249.934 742.624 250.218 742.6 250.5L741.4 269.7C741.401 270.214 741.204 270.708 740.85 271.08C740.496 271.452 740.013 271.674 739.5 271.7Z" fill="#F4C2C9"/>
<path d="M681.3 253.8L680.2 274" stroke="#22272E" stroke-width="1.8" stroke-linecap="round" stroke-linejoin="round"/>
<path d="M672.2 260.1L677.2 268.6" stroke="#22272E" stroke-width="1.8" stroke-linecap="round" stroke-linejoin="round"/>
<path d="M677.7 259.7L671.7 268.9" stroke="#22272E" stroke-width="1.8" stroke-linecap="round" stroke-linejoin="round"/>
<path d="M687.1 260.6L733.1 257.3" stroke="#22272E" stroke-width="1.8" stroke-linecap="round" stroke-linejoin="round"/>
<path d="M686.7 266.5L711.5 265.1" stroke="#22272E" stroke-width="1.8" stroke-linecap="round" stroke-linejoin="round"/>
<path d="M737.4 303.8L668.4 301.8C668.137 301.787 667.88 301.723 667.642 301.61C667.404 301.498 667.191 301.339 667.014 301.144C666.838 300.949 666.702 300.721 666.613 300.473C666.525 300.226 666.487 299.963 666.5 299.7L667.3 284C667.35 283.513 667.567 283.059 667.913 282.713C668.259 282.367 668.713 282.15 669.2 282.1L738.6 280.7C738.871 280.7 739.14 280.755 739.389 280.861C739.639 280.968 739.864 281.124 740.051 281.321C740.238 281.517 740.383 281.75 740.477 282.004C740.572 282.258 740.614 282.529 740.6 282.8L739.4 301.9C739.374 302.413 739.152 302.896 738.78 303.25C738.408 303.604 737.914 303.801 737.4 303.8Z" fill="#79B7FF"/>
<path d="M679.8 282L678.7 302.1" stroke="#22272E" stroke-width="1.8" stroke-linecap="round" stroke-linejoin="round"/>
<path d="M670.7 287.7L675.7 296.4" stroke="#22272E" stroke-width="1.8" stroke-linecap="round" stroke-linejoin="round"/>
<path d="M676.2 287.6L670.3 296.3" stroke="#22272E" stroke-width="1.8" stroke-linecap="round" stroke-linejoin="round"/>
<path d="M685.5 289.2L731.2 289.1" stroke="#22272E" stroke-width="1.8" stroke-linecap="round" stroke-linejoin="round"/>
<path d="M685.2 295L709.8 295.3" stroke="#22272E" stroke-width="1.8" stroke-linecap="round" stroke-linejoin="round"/>
<path d="M351.5 264.1L337.2 196.5C337.126 196.146 337.133 195.78 337.221 195.429C337.308 195.078 337.472 194.752 337.703 194.473C337.933 194.195 338.224 193.972 338.552 193.82C338.88 193.669 339.239 193.594 339.6 193.6H406.9C407.833 193.609 408.733 193.944 409.445 194.546C410.158 195.149 410.637 195.981 410.8 196.9L422 265.2C422.055 265.546 422.034 265.901 421.939 266.238C421.843 266.576 421.676 266.889 421.447 267.155C421.219 267.421 420.936 267.635 420.617 267.781C420.298 267.927 419.951 268.001 419.6 268L355.4 267.2C354.49 267.221 353.601 266.923 352.889 266.356C352.176 265.79 351.685 264.991 351.5 264.1Z" fill="#6171FF"/>
<path d="M350 265.7L335.7 198.1C335.626 197.746 335.633 197.38 335.721 197.029C335.808 196.678 335.972 196.352 336.203 196.073C336.433 195.795 336.724 195.572 337.052 195.42C337.38 195.269 337.739 195.194 338.1 195.2H405.4C406.333 195.209 407.233 195.544 407.945 196.146C408.658 196.749 409.137 197.581 409.3 198.5L420.5 266.8C420.555 267.146 420.534 267.501 420.439 267.838C420.343 268.176 420.176 268.489 419.947 268.755C419.719 269.021 419.436 269.235 419.117 269.381C418.798 269.527 418.451 269.601 418.1 269.6L353.9 268.8C352.995 268.801 352.117 268.494 351.408 267.931C350.7 267.368 350.204 266.582 350 265.7Z" fill="#4151DF"/>
<path d="M357.7 260.3L345.8 203.9H401.4L410.7 260.9L357.7 260.3Z" stroke="#22272E" stroke-width="1.8" stroke-linecap="round" stroke-linejoin="round"/>
<path d="M362.2 203.9L374.2 260.5" stroke="#22272E" stroke-width="1.8" stroke-linecap="round" stroke-linejoin="round"/>
<path d="M348.8 218.2H403.4" stroke="#22272E" stroke-width="1.8" stroke-linecap="round" stroke-linejoin="round"/>
<path d="M351.7 232H405.8" stroke="#22272E" stroke-width="1.8" stroke-linecap="round" stroke-linejoin="round"/>
<path d="M355 246L408.4 246.7" stroke="#22272E" stroke-width="1.8" stroke-linecap="round" stroke-linejoin="round"/>
<path d="M371.8 210.9H393.1" stroke="#22272E" stroke-width="1.8" stroke-linecap="round" stroke-linejoin="round"/>
<path d="M374.6 225.1H395.9" stroke="#22272E" stroke-width="1.8" stroke-linecap="round" stroke-linejoin="round"/>
<path d="M377.8 239L399.1 239.3" stroke="#22272E" stroke-width="1.8" stroke-linecap="round" stroke-linejoin="round"/>
<path d="M380.8 252.7L401.3 253.2" stroke="#22272E" stroke-width="1.8" stroke-linecap="round" stroke-linejoin="round"/>
<path d="M351.6 207.5L360.4 214.2" stroke="#F4C2C9" stroke-width="1.8" stroke-linecap="round" stroke-linejoin="round"/>
<path d="M358 207.5L353.5 214.2" stroke="#F4C2C9" stroke-width="1.8" stroke-linecap="round" stroke-linejoin="round"/>
<path d="M357.2 235.7L366 242.3" stroke="#F4C2C9" stroke-width="1.8" stroke-linecap="round" stroke-linejoin="round"/>
<path d="M363.6 235.7L359 242.3" stroke="#F4C2C9" stroke-width="1.8" stroke-linecap="round" stroke-linejoin="round"/>
<path d="M360.4 249.6L369.2 256.3" stroke="#F4C2C9" stroke-width="1.8" stroke-linecap="round" stroke-linejoin="round"/>
<path d="M366.8 249.6L362.3 256.3" stroke="#F4C2C9" stroke-width="1.8" stroke-linecap="round" stroke-linejoin="round"/>
<path d="M355 224.3L358 227.4L362.3 221.8" stroke="#79B7FF" stroke-width="1.8" stroke-linecap="round" stroke-linejoin="round"/>
<path d="M670.8 319.9C670.8 319.9 670.9 310.4 668.4 304.9C668.4 304.9 641.4 309.8 636.4 312.7C636.4 312.7 640.9 317.2 642.3 322.7C643.7 328.2 670.6 329.2 670.8 319.9Z" fill="white"/>
<path d="M671.6 326.8C671.6 326.8 673.3 309.5 674.1 305.9C674.1 305.9 652.2 307.7 644 312.4L646.2 330.7L671.6 326.8Z" fill="#F4C2C9"/>
<path d="M695.9 340.2C695.9 340.2 695.8 327.4 699.3 321.3C699.3 321.3 678.7 321.7 674.1 324.4C669.5 327.1 670.1 340.1 670.1 340.1C670.1 340.1 695 341.6 695.9 340.2Z" fill="white"/>
<path d="M699.3 334.6H676.6V397.1H699.3V334.6Z" fill="#4151DF"/>
<path d="M688 388.5C690.43 388.5 692.4 386.53 692.4 384.1C692.4 381.67 690.43 379.7 688 379.7C685.57 379.7 683.6 381.67 683.6 384.1C683.6 386.53 685.57 388.5 688 388.5Z" stroke="#22272E" stroke-width="1.8" stroke-linecap="round" stroke-linejoin="round"/>
<path d="M653.9 397.2V319.9L640.3 323.2V389.1L653.9 397.2Z" fill="#4151DF"/>
<path d="M676.6 319.9H653.9V397.2H676.6V319.9Z" fill="#79B7FF"/>
<path d="M665.2 388.5C667.63 388.5 669.6 386.53 669.6 384.1C669.6 381.67 667.63 379.7 665.2 379.7C662.77 379.7 660.8 381.67 660.8 384.1C660.8 386.53 662.77 388.5 665.2 388.5Z" stroke="#22272E" stroke-width="1.8" stroke-linecap="round" stroke-linejoin="round"/>
<path d="M659.7 367.2H670.8" stroke="#22272E" stroke-width="1.8" stroke-linecap="round" stroke-linejoin="round"/>
<path d="M659.7 371.6H670.8" stroke="#22272E" stroke-width="1.8" stroke-linecap="round" stroke-linejoin="round"/>
</svg>
